{
  "accessors": [
    {
      "bufferView": 2,
      "componentType": 5126,
      "count": 114,
      "max": [
        2.1516339778900146,
        1.976762056350708,
        -0.46840500831604004
      ],
      "min": [
        1.74509596824646,
        1.8811060190200806,
        -0.7314590215682983
      ],
      "type": "VEC3"
    },
    {
      "bufferView": 2,
      "byteOffset": 1368,
      "componentType": 5126,
      "count": 114,
      "max": [
        0.8916704654693604,
        0.0,
        1.0
      ],
      "min": [
        -0.5038834810256958,
        -0.998847246170044,
        -1.0
      ],
      "type": "VEC3"
    },
    {
      "bufferView": 1,
      "componentType": 5126,
      "count": 114,
      "max": [
        0.7480310201644897,
        0.5118110179901123
      ],
      "min": [
        -0.7480310201644897,
        -0.23622000217437744
      ],
      "type": "VEC2"
    },
    {
      "bufferView": 0,
      "componentType": 5125,
      "count": 246,
      "type": "SCALAR"
    },
    {
      "bufferView": 2,
      "byteOffset": 2736,
      "componentType": 5126,
      "count": 252,
      "max": [
        2.104111909866333,
        2.4842660427093506,
        0.5789340138435364
      ],
      "min": [
        1.763198971748352,
        2.076491117477417,
        0.38879698514938354
      ],
      "type": "VEC3"
    },
    {
      "bufferView": 2,
      "byteOffset": 5760,
      "componentType": 5126,
      "count": 252,
      "max": [
        1.0,
        1.0,
        1.0
      ],
      "min": [
        -1.0,
        -1.0,
        -1.0
      ],
      "type": "VEC3"
    },
    {
      "bufferView": 0,
      "byteOffset": 984,
      "componentType": 5125,
      "count": 468,
      "type": "SCALAR"
    },
    {
      "bufferView": 2,
      "byteOffset": 8784,
      "componentType": 5126,
      "count": 199,
      "max": [
        2.2195661067962646,
        2.5580620765686035,
        0.6943609714508057
      ],
      "min": [
        1.6477450132369995,
        2.5512449741363525,
        0.2959209978580475
      ],
      "type": "VEC3"
    },
    {
      "bufferView": 2,
      "byteOffset": 11172,
      "componentType": 5126,
      "count": 199,
      "max": [
        1.0,
        1.0,
        1.0
      ],
      "min": [
        -1.0,
        -1.0,
        -1.0
      ],
      "type": "VEC3"
    },
    {
      "bufferView": 0,
      "byteOffset": 2856,
      "componentType": 5125,
      "count": 396,
      "type": "SCALAR"
    },
    {
      "bufferView": 2,
      "byteOffset": 13560,
      "componentType": 5126,
      "count": 42,
      "max": [
        2.286992073059082,
        2.538032054901123,
        0.7710580229759216
      ],
      "min": [
        1.5803190469741821,
        2.282215118408203,
        0.1360889971256256
      ],
      "type": "VEC3"
    },
    {
      "bufferView": 0,
      "byteOffset": 4440,
      "componentType": 5125,
      "count": 76,
      "type": "SCALAR"
    },
    {
      "bufferView": 2,
      "byteOffset": 14064,
      "componentType": 5126,
      "count": 220,
      "max": [
        0.8759269714355469,
        2.4302101135253906,
        0.8758289813995361
      ],
      "min": [
        -0.8707299828529358,
        2.383622884750366,
        -0.9311950206756592
      ],
      "type": "VEC3"
    },
    {
      "bufferView": 2,
      "byteOffset": 16704,
      "componentType": 5126,
      "count": 220,
      "max": [
        0.9956470131874084,
        1.0,
        0.9956470131874084
      ],
      "min": [
        -0.9956470131874084,
        -1.0,
        -0.9956470131874084
      ],
      "type": "VEC3"
    },
    {
      "bufferView": 1,
      "byteOffset": 912,
      "componentType": 5126,
      "count": 220,
      "max": [
        5.311779975891113,
        4.60260009765625
      ],
      "min": [
        -5.311779975891113,
        -0.0
      ],
      "type": "VEC2"
    },
    {
      "bufferView": 0,
      "byteOffset": 4744,
      "componentType": 5125,
      "count": 432,
      "type": "SCALAR"
    },
    {
      "bufferView": 2,
      "byteOffset": 19344,
      "componentType": 5126,
      "count": 192,
      "max": [
        2.5355379581451416,
        2.069962978363037,
        0.5182120203971863
      ],
      "min": [
        2.4243850708007813,
        1.9667489528656006,
        0.4070590138435364
      ],
      "type": "VEC3"
    },
    {
      "bufferView": 2,
      "byteOffset": 21648,
      "componentType": 5126,
      "count": 192,
      "max": [
        1.0,
        -0.0,
        1.0
      ],
      "min": [
        -1.0,
        -1.0,
        -1.0
      ],
      "type": "VEC3"
    },
    {
      "bufferView": 1,
      "byteOffset": 2672,
      "componentType": 5126,
      "count": 192,
      "max": [
        0.2755909860134125,
        0.4119189977645874
      ],
      "min": [
        -0.23053599894046783,
        0.0
      ],
      "type": "VEC2"
    },
    {
      "bufferView": 0,
      "byteOffset": 6472,
      "componentType": 5125,
      "count": 342,
      "type": "SCALAR"
    },
    {
      "bufferView": 2,
      "byteOffset": 23952,
      "componentType": 5126,
      "count": 2348,
      "max": [
        1.0318609476089478,
        2.3743059635162354,
        0.992900013923645
      ],
      "min": [
        -1.0349849462509155,
        2.0016210079193115,
        -1.0451020002365112
      ],
      "type": "VEC3"
    },
    {
      "bufferView": 2,
      "byteOffset": 52128,
      "componentType": 5126,
      "count": 2348,
      "max": [
        0.9998288750648499,
        1.0,
        0.9999955892562866
      ],
      "min": [
        -1.0,
        -1.0,
        -0.9998357892036438
      ],
      "type": "VEC3"
    },
    {
      "bufferView": 1,
      "byteOffset": 4208,
      "componentType": 5126,
      "count": 2348,
      "max": [
        4.974909782409668,
        4.216330051422119
      ],
      "min": [
        -4.974909782409668,
        -2.516050100326538
      ],
      "type": "VEC2"
    },
    {
      "bufferView": 0,
      "byteOffset": 7840,
      "componentType": 5125,
      "count": 3348,
      "type": "SCALAR"
    },
    {
      "bufferView": 2,
      "byteOffset": 80304,
      "componentType": 5126,
      "count": 192,
      "max": [
        1.455538034439087,
        2.069962978363037,
        0.5182120203971863
      ],
      "min": [
        1.344385027885437,
        1.9667489528656006,
        0.4070590138435364
      ],
      "type": "VEC3"
    },
    {
      "bufferView": 2,
      "byteOffset": 82608,
      "componentType": 5126,
      "count": 192,
      "max": [
        1.0,
        -0.0,
        1.0
      ],
      "min": [
        -1.0,
        -1.0,
        -1.0
      ],
      "type": "VEC3"
    },
    {
      "bufferView": 1,
      "byteOffset": 22992,
      "componentType": 5126,
      "count": 192,
      "max": [
        0.2755909860134125,
        0.4119189977645874
      ],
      "min": [
        -0.23053599894046783,
        0.0
      ],
      "type": "VEC2"
    },
    {
      "bufferView": 0,
      "byteOffset": 21232,
      "componentType": 5125,
      "count": 342,
      "type": "SCALAR"
    },
    {
      "bufferView": 2,
      "byteOffset": 84912,
      "componentType": 5126,
      "count": 192,
      "max": [
        -1.0044620037078857,
        2.069962978363037,
        -0.9874110221862793
      ],
      "min": [
        -1.1156150102615356,
        1.9667489528656006,
        -1.0985640287399292
      ],
      "type": "VEC3"
    },
    {
      "bufferView": 2,
      "byteOffset": 87216,
      "componentType": 5126,
      "count": 192,
      "max": [
        1.0,
        -0.0,
        1.0
      ],
      "min": [
        -1.0,
        -1.0,
        -1.0
      ],
      "type": "VEC3"
    },
    {
      "bufferView": 1,
      "byteOffset": 24528,
      "componentType": 5126,
      "count": 192,
      "max": [
        0.2755909860134125,
        0.4119189977645874
      ],
      "min": [
        -0.23053599894046783,
        0.0
      ],
      "type": "VEC2"
    },
    {
      "bufferView": 0,
      "byteOffset": 22600,
      "componentType": 5125,
      "count": 342,
      "type": "SCALAR"
    },
    {
      "bufferView": 2,
      "byteOffset": 89520,
      "componentType": 5126,
      "count": 192,
      "max": [
        -1.0044620037078857,
        2.069962978363037,
        1.1298249959945679
      ],
      "min": [
        -1.1156150102615356,
        1.9667489528656006,
        1.0186710357666016
      ],
      "type": "VEC3"
    },
    {
      "bufferView": 2,
      "byteOffset": 91824,
      "componentType": 5126,
      "count": 192,
      "max": [
        1.0,
        -0.0,
        1.0
      ],
      "min": [
        -1.0,
        -1.0,
        -1.0
      ],
      "type": "VEC3"
    },
    {
      "bufferView": 1,
      "byteOffset": 26064,
      "componentType": 5126,
      "count": 192,
      "max": [
        0.2755909860134125,
        0.4119189977645874
      ],
      "min": [
        -0.23053599894046783,
        0.0
      ],
      "type": "VEC2"
    },
    {
      "bufferView": 0,
      "byteOffset": 23968,
      "componentType": 5125,
      "count": 342,
      "type": "SCALAR"
    },
    {
      "bufferView": 2,
      "byteOffset": 94128,
      "componentType": 5126,
      "count": 192,
      "max": [
        1.1170259714126587,
        2.069962978363037,
        -0.9874110221862793
      ],
      "min": [
        1.0058720111846924,
        1.9667489528656006,
        -1.0985640287399292
      ],
      "type": "VEC3"
    },
    {
      "bufferView": 2,
      "byteOffset": 96432,
      "componentType": 5126,
      "count": 192,
      "max": [
        1.0,
        -0.0,
        1.0
      ],
      "min": [
        -1.0,
        -1.0,
        -1.0
      ],
      "type": "VEC3"
    },
    {
      "bufferView": 1,
      "byteOffset": 27600,
      "componentType": 5126,
      "count": 192,
      "max": [
        0.2755909860134125,
        0.4119189977645874
      ],
      "min": [
        -0.23053599894046783,
        0.0
      ],
      "type": "VEC2"
    },
    {
      "bufferView": 0,
      "byteOffset": 25336,
      "componentType": 5125,
      "count": 342,
      "type": "SCALAR"
    },
    {
      "bufferView": 2,
      "byteOffset": 98736,
      "componentType": 5126,
      "count": 192,
      "max": [
        1.1170259714126587,
        2.069962978363037,
        1.1298249959945679
      ],
      "min": [
        1.0058720111846924,
        1.9667489528656006,
        1.0186710357666016
      ],
      "type": "VEC3"
    },
    {
      "bufferView": 2,
      "byteOffset": 101040,
      "componentType": 5126,
      "count": 192,
      "max": [
        1.0,
        -0.0,
        1.0
      ],
      "min": [
        -1.0,
        -1.0,
        -1.0
      ],
      "type": "VEC3"
    },
    {
      "bufferView": 1,
      "byteOffset": 29136,
      "componentType": 5126,
      "count": 192,
      "max": [
        0.2755909860134125,
        0.4119189977645874
      ],
      "min": [
        -0.23053599894046783,
        0.0
      ],
      "type": "VEC2"
    },
    {
      "bufferView": 0,
      "byteOffset": 26704,
      "componentType": 5125,
      "count": 342,
      "type": "SCALAR"
    },
    {
      "bufferView": 2,
      "byteOffset": 103344,
      "componentType": 5126,
      "count": 40,
      "max": [
        2.0041110515594482,
        1.971709966659546,
        -0.5642049908638
      ],
      "min": [
        1.8179240226745605,
        1.9165430068969727,
        -0.6359469890594482
      ],
      "type": "VEC3"
    },
    {
      "bufferView": 2,
      "byteOffset": 103824,
      "componentType": 5126,
      "count": 40,
      "max": [
        -0.14350715279579163,
        -0.9080822467803955,
        -0.0
      ],
      "min": [
        -0.418791800737381,
        -0.9896492958068848,
        -0.0
      ],
      "type": "VEC3"
    },
    {
      "bufferView": 1,
      "byteOffset": 30672,
      "componentType": 5126,
      "count": 40,
      "max": [
        0.5332239866256714,
        0.354077011346817
      ],
      "min": [
        0.20907600224018097,
        0.2359669953584671
      ],
      "type": "VEC2"
    },
    {
      "bufferView": 0,
      "byteOffset": 28072,
      "componentType": 5125,
      "count": 96,
      "type": "SCALAR"
    },
    {
      "bufferView": 2,
      "byteOffset": 104304,
      "componentType": 5126,
      "count": 1743,
      "max": [
        2.6138110160827637,
        2.5713210105895996,
        0.7710580229759216
      ],
      "min": [
        1.253501057624817,
        1.960258960723877,
        0.1360889971256256
      ],
      "type": "VEC3"
    },
    {
      "bufferView": 2,
      "byteOffset": 125220,
      "componentType": 5126,
      "count": 1743,
      "max": [
        1.0,
        1.0,
        1.0
      ],
      "min": [
        -1.0,
        -1.0,
        -1.0
      ],
      "type": "VEC3"
    },
    {
      "bufferView": 0,
      "byteOffset": 28456,
      "componentType": 5125,
      "count": 3648,
      "type": "SCALAR"
    },
    {
      "bufferView": 2,
      "byteOffset": 146136,
      "componentType": 5126,
      "count": 6621,
      "max": [
        2.8575310707092285,
        4.280118942260742,
        1.1522940397262573
      ],
      "min": [
        -1.1522940397262573,
        1.9729479551315308,
        -1.1522940397262573
      ],
      "type": "VEC3"
    },
    {
      "bufferView": 2,
      "byteOffset": 225588,
      "componentType": 5126,
      "count": 6621,
      "max": [
        1.0,
        1.0,
        1.0
      ],
      "min": [
        -1.0,
        -1.0,
        -1.0
      ],
      "type": "VEC3"
    },
    {
      "bufferView": 0,
      "byteOffset": 43048,
      "componentType": 5125,
      "count": 13113,
      "type": "SCALAR"
    },
    {
      "bufferView": 2,
      "byteOffset": 305040,
      "componentType": 5126,
      "count": 52,
      "max": [
        2.199942111968994,
        1.976762056350708,
        -0.42064499855041504
      ],
      "min": [
        1.6977479457855225,
        1.9278570413589478,
        -0.779354989528656
      ],
      "type": "VEC3"
    },
    {
      "bufferView": 2,
      "byteOffset": 305664,
      "componentType": 5126,
      "count": 52,
      "max": [
        1.0,
        1.0,
        1.0
      ],
      "min": [
        -1.0,
        -1.0,
        -1.0
      ],
      "type": "VEC3"
    },
    {
      "bufferView": 1,
      "byteOffset": 30992,
      "componentType": 5126,
      "count": 52,
      "max": [
        0.8267719745635986,
        0.5905510187149048
      ],
      "min": [
        -0.8267719745635986,
        0.0
      ],
      "type": "VEC2"
    },
    {
      "bufferView": 0,
      "byteOffset": 95500,
      "componentType": 5125,
      "count": 102,
      "type": "SCALAR"
    }
  ],
  "asset": {
    "extras": {
      "author": "Muhammad Kholis (https://sketchfab.com/TissuGalon)",
      "license": "CC-BY-4.0 (http://creativecommons.org/licenses/by/4.0/)",
      "source": "https://sketchfab.com/3d-models/power-supply-28df0f2fc76f4bc181492e6c1f3e5231",
      "title": "Power Supply"
    },
    "generator": "Sketchfab-14.5.0",
    "version": "2.0"
  },
  "bufferViews": [
    {
      "buffer": 0,
      "byteLength": 95908,
      "name": "floatBufferViews",
      "target": 34963
    },
    {
      "buffer": 0,
      "byteLength": 31408,
      "byteOffset": 95908,
      "byteStride": 8,
      "name": "floatBufferViews",
      "target": 34962
    },
    {
      "buffer": 0,
      "byteLength": 306288,
      "byteOffset": 127316,
      "byteStride": 12,
      "name": "floatBufferViews",
      "target": 34962
    }
  ],
  "buffers": [
    {
      "byteLength": 433604,
      "uri": "scene.bin"
    }
  ],
  "extensionsUsed": [
    "KHR_texture_transform"
  ],
  "images": [
    {
      "uri": "textures/Thermaltake_TR2_1000W_Fan_Grill.000_baseColor.jpeg"
    }
  ],
  "materials": [
    {
      "doubleSided": true,
      "name": "M_0022_Maroon.002",
      "pbrMetallicRoughness": {
        "baseColorFactor": [
          0.03954623527673283,
          0.03820437159534648,
          0.03820437159534648,
          1.0
        ],
        "metallicFactor": 0.0,
        "roughnessFactor": 0.6
      }
    },
    {
      "doubleSided": true,
      "name": "Material.001",
      "pbrMetallicRoughness": {
        "roughnessFactor": 0.1116163401640844
      }
    },
    {
      "doubleSided": true,
      "name": "Material.002",
      "pbrMetallicRoughness": {
        "baseColorFactor": [
          0.04011232605020126,
          0.03876120365265882,
          0.03876120365265882,
          1.0
        ],
        "metallicFactor": 0.0,
        "roughnessFactor": 0.6
      }
    },
    {
      "doubleSided": true,
      "name": "Material.003",
      "pbrMetallicRoughness": {
        "baseColorFactor": [
          0.03954623527673283,
          0.03820437159534648,
          0.03820437159534648,
          1.0
        ],
        "metallicFactor": 0.0,
        "roughnessFactor": 0.6
      }
    },
    {
      "name": "None",
      "pbrMetallicRoughness": {
        "baseColorFactor": [
          0.5469729369111547,
          0.5361971184876723,
          0.5361971184876723,
          1.0
        ],
        "metallicFactor": 0.5043824895466348,
        "roughnessFactor": 0.13599736684911812
      }
    },
    {
      "doubleSided": true,
      "name": "San_Ace_120mm_Fan_Blades.002",
      "pbrMetallicRoughness": {
        "baseColorFactor": [
          0.0,
          0.0,
          0.0,
          1.0
        ],
        "metallicFactor": 0.4556204361765674
      }
    },
    {
      "doubleSided": true,
      "name": "San_Ace_120mm_Fan_Body.002",
      "pbrMetallicRoughness": {
        "baseColorFactor": [
          0.03564081245896186,
          0.03564081245896186,
          0.03564081245896186,
          1.0
        ],
        "metallicFactor": 0.0,
        "roughnessFactor": 0.6
      }
    },
    {
      "doubleSided": true,
      "name": "Thermaltake_TR2_1000W_Fan_Grill.000",
      "pbrMetallicRoughness": {
        "baseColorTexture": {
          "extensions": {
            "KHR_texture_transform": {
              "scale": [
                -3.5999999999999996,
                -3.5999999999999996
              ]
            }
          },
          "index": 0
        },
        "metallicFactor": 0.0,
        "roughnessFactor": 0.6
      }
    },
    {
      "doubleSided": true,
      "name": "Thermaltake_TR2_1000W_Fan_Grill.001",
      "pbrMetallicRoughness": {
        "baseColorTexture": {
          "extensions": {
            "KHR_texture_transform": {
              "offset": [
                1,
                1
              ],
              "scale": [
                -3.5999999999999996,
                -3.5999999999999996
              ]
            }
          },
          "index": 0
        },
        "metallicFactor": 0.0,
        "roughnessFactor": 0.6
      }
    },
    {
      "doubleSided": true,
      "name": "Thermaltake_TR2_1000W_Fan_Grill.002",
      "pbrMetallicRoughness": {
        "baseColorTexture": {
          "extensions": {
            "KHR_texture_transform": {
              "scale": [
                -3.5999999999999996,
                -3.5999999999999996
              ]
            }
          },
          "index": 0
        },
        "metallicFactor": 0.0,
        "roughnessFactor": 0.6
      }
    },
    {
      "doubleSided": true,
      "name": "Thermaltake_TR2_1000W_Fan_Grill.003",
      "pbrMetallicRoughness": {
        "baseColorTexture": {
          "extensions": {
            "KHR_texture_transform": {
              "scale": [
                -3.5999999999999996,
                -3.5999999999999996
              ]
            }
          },
          "index": 0
        },
        "metallicFactor": 0.0,
        "roughnessFactor": 0.6
      }
    },
    {
      "doubleSided": true,
      "name": "Thermaltake_TR2_1000W_Fan_Grill.004",
      "pbrMetallicRoughness": {
        "baseColorTexture": {
          "extensions": {
            "KHR_texture_transform": {
              "scale": [
                -3.5999999999999996,
                -3.5999999999999996
              ]
            }
          },
          "index": 0
        },
        "metallicFactor": 0.0,
        "roughnessFactor": 0.6
      }
    },
    {
      "doubleSided": true,
      "name": "Thermaltake_TR2_1000W_Fan_Grill.005",
      "pbrMetallicRoughness": {
        "baseColorTexture": {
          "extensions": {
            "KHR_texture_transform": {
              "scale": [
                -3.5999999999999996,
                -3.5999999999999996
              ]
            }
          },
          "index": 0
        },
        "metallicFactor": 0.0,
        "roughnessFactor": 0.6
      }
    },
    {
      "doubleSided": true,
      "name": "0129_WhiteSmoke_1.002",
      "pbrMetallicRoughness": {
        "metallicFactor": 0.0,
        "roughnessFactor": 0.6
      }
    },
    {
      "doubleSided": true,
      "name": "0136_Charcoal_1.002",
      "pbrMetallicRoughness": {
        "baseColorFactor": [
          0.03954623527673283,
          0.03820437159534648,
          0.03820437159534648,
          1.0
        ],
        "metallicFactor": 0.0,
        "roughnessFactor": 0.6
      }
    }
  ],
  "meshes": [
    {
      "name": "Object_0",
      "primitives": [
        {
          "attributes": {
            "NORMAL": 1,
            "POSITION": 0,
            "TEXCOORD_0": 2
          },
          "indices": 3,
          "material": 0,
          "mode": 4
        }
      ]
    },
    {
      "name": "Object_1",
      "primitives": [
        {
          "attributes": {
            "NORMAL": 5,
            "POSITION": 4
          },
          "indices": 6,
          "material": 1,
          "mode": 4
        }
      ]
    },
    {
      "name": "Object_2",
      "primitives": [
        {
          "attributes": {
            "NORMAL": 8,
            "POSITION": 7
          },
          "indices": 9,
          "material": 3,
          "mode": 4
        }
      ]
    },
    {
      "name": "Object_3",
      "primitives": [
        {
          "attributes": {
            "POSITION": 10
          },
          "indices": 11,
          "material": 4,
          "mode": 1
        }
      ]
    },
    {
      "name": "Object_4",
      "primitives": [
        {
          "attributes": {
            "NORMAL": 13,
            "POSITION": 12,
            "TEXCOORD_0": 14
          },
          "indices": 15,
          "material": 6,
          "mode": 4
        }
      ]
    },
    {
      "name": "Object_5",
      "primitives": [
        {
          "attributes": {
            "NORMAL": 17,
            "POSITION": 16,
            "TEXCOORD_0": 18
          },
          "indices": 19,
          "material": 8,
          "mode": 4
        }
      ]
    },
    {
      "name": "Object_6",
      "primitives": [
        {
          "attributes": {
            "NORMAL": 21,
            "POSITION": 20,
            "TEXCOORD_0": 22
          },
          "indices": 23,
          "material": 5,
          "mode": 4
        }
      ]
    },
    {
      "name": "Object_7",
      "primitives": [
        {
          "attributes": {
            "NORMAL": 25,
            "POSITION": 24,
            "TEXCOORD_0": 26
          },
          "indices": 27,
          "material": 7,
          "mode": 4
        }
      ]
    },
    {
      "name": "Object_8",
      "primitives": [
        {
          "attributes": {
            "NORMAL": 29,
            "POSITION": 28,
            "TEXCOORD_0": 30
          },
          "indices": 31,
          "material": 9,
          "mode": 4
        }
      ]
    },
    {
      "name": "Object_9",
      "primitives": [
        {
          "attributes": {
            "NORMAL": 33,
            "POSITION": 32,
            "TEXCOORD_0": 34
          },
          "indices": 35,
          "material": 10,
          "mode": 4
        }
      ]
    },
    {
      "name": "Object_10",
      "primitives": [
        {
          "attributes": {
            "NORMAL": 37,
            "POSITION": 36,
            "TEXCOORD_0": 38
          },
          "indices": 39,
          "material": 11,
          "mode": 4
        }
      ]
    },
    {
      "name": "Object_11",
      "primitives": [
        {
          "attributes": {
            "NORMAL": 41,
            "POSITION": 40,
            "TEXCOORD_0": 42
          },
          "indices": 43,
          "material": 12,
          "mode": 4
        }
      ]
    },
    {
      "name": "Object_12",
      "primitives": [
        {
          "attributes": {
            "NORMAL": 45,
            "POSITION": 44,
            "TEXCOORD_0": 46
          },
          "indices": 47,
          "material": 13,
          "mode": 4
        }
      ]
    },
    {
      "name": "Object_13",
      "primitives": [
        {
          "attributes": {
            "NORMAL": 49,
            "POSITION": 48
          },
          "indices": 50,
          "material": 2,
          "mode": 4
        }
      ]
    },
    {
      "name": "Object_14",
      "primitives": [
        {
          "attributes": {
            "NORMAL": 52,
            "POSITION": 51
          },
          "indices": 53,
          "material": 4,
          "mode": 4
        }
      ]
    },
    {
      "name": "Object_15",
      "primitives": [
        {
          "attributes": {
            "NORMAL": 55,
            "POSITION": 54,
            "TEXCOORD_0": 56
          },
          "indices": 57,
          "material": 14,
          "mode": 4
        }
      ]
    }
  ],
  "nodes": [
    {
      "children": [
        1
      ],
      "matrix": [
        1.0,
        0.0,
        0.0,
        0.0,
        0.0,
        3.828568672208042e-16,
        -1.0,
        0.0,
        0.0,
        1.0,
        3.828568672208042e-16,
        0.0,
        0.0,
        0.0,
        0.0,
        1.0
      ],
      "name": "Sketchfab_model"
    },
    {
      "children": [
        2,
        3,
        4,
        5,
        6,
        7,
        8,
        9,
        10,
        11,
        12,
        13,
        14,
        15,
        16,
        17
      ],
      "name": "b7bced830b1248368bf17df5163db1c0.obj.cleaner.materialmerger.gles"
    },
    {
      "mesh": 0,
      "name": "Object_2"
    },
    {
      "mesh": 1,
      "name": "Object_3"
    },
    {
      "mesh": 2,
      "name": "Object_4"
    },
    {
      "mesh": 3,
      "name": "Object_5"
    },
    {
      "mesh": 4,
      "name": "Object_6"
    },
    {
      "mesh": 5,
      "name": "Object_7"
    },
    {
      "mesh": 6,
      "name": "Object_8"
    },
    {
      "mesh": 7,
      "name": "Object_9"
    },
    {
      "mesh": 8,
      "name": "Object_10"
    },
    {
      "mesh": 9,
      "name": "Object_11"
    },
    {
      "mesh": 10,
      "name": "Object_12"
    },
    {
      "mesh": 11,
      "name": "Object_13"
    },
    {
      "mesh": 12,
      "name": "Object_14"
    },
    {
      "mesh": 13,
      "name": "Object_15"
    },
    {
      "mesh": 14,
      "name": "Object_16"
    },
    {
      "mesh": 15,
      "name": "Object_17"
    }
  ],
  "samplers": [
    {
      "magFilter": 9729,
      "minFilter": 9987,
      "wrapS": 10497,
      "wrapT": 10497
    }
  ],
  "scene": 0,
  "scenes": [
    {
      "name": "Sketchfab_Scene",
      "nodes": [
        0
      ]
    }
  ],
  "textures": [
    {
      "sampler": 0,
      "source": 0
    }
  ]
}
