{
  "accessors": [
    {
      "bufferView": 2,
      "componentType": 5126,
      "count": 29854,
      "max": [
        2.205594539642334,
        0.7868185043334961,
        1.000000238418579
      ],
      "min": [
        -1.0,
        -1.0,
        -1.9319401979446411
      ],
      "type": "VEC3"
    },
    {
      "bufferView": 2,
      "byteOffset": 358248,
      "componentType": 5126,
      "count": 29854,
      "max": [
        1.0,
        1.0,
        1.0
      ],
      "min": [
        -1.0,
        -1.0,
        -1.0
      ],
      "type": "VEC3"
    },
    {
      "bufferView": 1,
      "componentType": 5126,
      "count": 29854,
      "max": [
        1.0,
        1.0000001192092896
      ],
      "min": [
        -3.3155083656311035e-07,
        0.0
      ],
      "type": "VEC2"
    },
    {
      "bufferView": 0,
      "componentType": 5125,
      "count": 62391,
      "type": "SCALAR"
    },
    {
      "bufferView": 2,
      "byteOffset": 716496,
      "componentType": 5126,
      "count": 88,
      "max": [
        3.0028157234191895,
        1.5570068359375,
        -0.024700939655303955
      ],
      "min": [
        0.12856900691986084,
        -0.4429931044578552,
        -2.024700880050659
      ],
      "type": "VEC3"
    },
    {
      "bufferView": 2,
      "byteOffset": 717552,
      "componentType": 5126,
      "count": 88,
      "max": [
        1.0,
        1.0,
        1.0
      ],
      "min": [
        -1.0,
        -1.0,
        -1.0
      ],
      "type": "VEC3"
    },
    {
      "bufferView": 1,
      "byteOffset": 238832,
      "componentType": 5126,
      "count": 88,
      "max": [
        0.875,
        1.0
      ],
      "min": [
        0.125,
        0.0
      ],
      "type": "VEC2"
    },
    {
      "bufferView": 0,
      "byteOffset": 249564,
      "componentType": 5125,
      "count": 180,
      "type": "SCALAR"
    },
    {
      "bufferView": 2,
      "byteOffset": 718608,
      "componentType": 5126,
      "count": 48,
      "max": [
        1.0,
        1.247916579246521,
        0.7924947738647461
      ],
      "min": [
        -0.6853951811790466,
        -1.3998682498931885,
        -1.7166593074798584
      ],
      "type": "VEC3"
    },
    {
      "bufferView": 2,
      "byteOffset": 719184,
      "componentType": 5126,
      "count": 48,
      "max": [
        1.0,
        1.0,
        1.0
      ],
      "min": [
        -1.0,
        -1.0,
        -1.0
      ],
      "type": "VEC3"
    },
    {
      "bufferView": 1,
      "byteOffset": 239536,
      "componentType": 5126,
      "count": 48,
      "max": [
        0.875,
        1.0
      ],
      "min": [
        0.125,
        0.0
      ],
      "type": "VEC2"
    },
    {
      "bufferView": 0,
      "byteOffset": 250284,
      "componentType": 5125,
      "count": 72,
      "type": "SCALAR"
    },
    {
      "bufferView": 2,
      "byteOffset": 719760,
      "componentType": 5126,
      "count": 448,
      "max": [
        3.5467326641082764,
        1.2327027320861816,
        3.5467326641082764
      ],
      "min": [
        -3.5467312335968018,
        0.7296766638755798,
        -3.5467312335968018
      ],
      "type": "VEC3"
    },
    {
      "bufferView": 2,
      "byteOffset": 725136,
      "componentType": 5126,
      "count": 448,
      "max": [
        0.9951847195625305,
        1.0,
        0.9951847195625305
      ],
      "min": [
        -0.9951848387718201,
        -1.0,
        -0.9951847791671753
      ],
      "type": "VEC3"
    },
    {
      "bufferView": 1,
      "byteOffset": 239920,
      "componentType": 5126,
      "count": 448,
      "max": [
        1.0,
        1.0
      ],
      "min": [
        0.0,
        0.01000000536441803
      ],
      "type": "VEC2"
    },
    {
      "bufferView": 0,
      "byteOffset": 250572,
      "componentType": 5125,
      "count": 756,
      "type": "SCALAR"
    },
    {
      "bufferView": 2,
      "byteOffset": 730512,
      "componentType": 5126,
      "count": 48,
      "max": [
        4.1716084480285645,
        1.4043736457824707,
        1.8572497367858887
      ],
      "min": [
        -1.8781249523162842,
        -1.9106383323669434,
        1.6553895473480225
      ],
      "type": "VEC3"
    },
    {
      "bufferView": 2,
      "byteOffset": 731088,
      "componentType": 5126,
      "count": 48,
      "max": [
        1.0,
        1.0,
        1.0
      ],
      "min": [
        -1.0,
        -1.0,
        -1.0
      ],
      "type": "VEC3"
    },
    {
      "bufferView": 1,
      "byteOffset": 243504,
      "componentType": 5126,
      "count": 48,
      "max": [
        0.875,
        1.0
      ],
      "min": [
        0.125,
        0.0
      ],
      "type": "VEC2"
    },
    {
      "bufferView": 0,
      "byteOffset": 253596,
      "componentType": 5125,
      "count": 84,
      "type": "SCALAR"
    },
    {
      "bufferView": 2,
      "byteOffset": 731664,
      "componentType": 5126,
      "count": 3964,
      "max": [
        8.388384819030762,
        1.0,
        2.111121654510498
      ],
      "min": [
        0.02063530683517456,
        -1.1988770961761475,
        0.11112160980701447
      ],
      "type": "VEC3"
    },
    {
      "bufferView": 2,
      "byteOffset": 779232,
      "componentType": 5126,
      "count": 3964,
      "max": [
        1.0,
        1.0,
        1.0
      ],
      "min": [
        -1.0,
        -1.0,
        -1.0
      ],
      "type": "VEC3"
    },
    {
      "bufferView": 1,
      "byteOffset": 243888,
      "componentType": 5126,
      "count": 3964,
      "max": [
        0.875,
        1.0
      ],
      "min": [
        0.125,
        0.0
      ],
      "type": "VEC2"
    },
    {
      "bufferView": 0,
      "byteOffset": 253932,
      "componentType": 5125,
      "count": 8874,
      "type": "SCALAR"
    },
    {
      "bufferView": 2,
      "byteOffset": 826800,
      "componentType": 5126,
      "count": 960,
      "max": [
        6.442405700683594,
        8.448834419250488,
        1.0
      ],
      "min": [
        -6.634495258331299,
        -1.000000238418579,
        -7.1820502281188965
      ],
      "type": "VEC3"
    },
    {
      "bufferView": 2,
      "byteOffset": 838320,
      "componentType": 5126,
      "count": 960,
      "max": [
        0.9951848387718201,
        1.0,
        0.9951848387718201
      ],
      "min": [
        -0.9951848387718201,
        -1.0,
        -0.9951847791671753
      ],
      "type": "VEC3"
    },
    {
      "bufferView": 1,
      "byteOffset": 275600,
      "componentType": 5126,
      "count": 960,
      "max": [
        1.0,
        1.0
      ],
      "min": [
        0.0,
        0.01000000536441803
      ],
      "type": "VEC2"
    },
    {
      "bufferView": 0,
      "byteOffset": 289428,
      "componentType": 5125,
      "count": 2538,
      "type": "SCALAR"
    }
  ],
  "asset": {
    "extras": {
      "author": "pablohidalgo748 (https://sketchfab.com/pablohidalgo748)",
      "license": "CC-BY-4.0 (http://creativecommons.org/licenses/by/4.0/)",
      "source": "https://sketchfab.com/3d-models/fuente-de-alimentacion-8fc73eb750464c4dbb9ebaa3be97d622",
      "title": "Fuente De Alimentación"
    },
    "generator": "Sketchfab-16.16.0",
    "version": "2.0"
  },
  "bufferViews": [
    {
      "buffer": 0,
      "byteLength": 299580,
      "name": "floatBufferViews",
      "target": 34963
    },
    {
      "buffer": 0,
      "byteLength": 283280,
      "byteOffset": 299580,
      "byteStride": 8,
      "name": "floatBufferViews",
      "target": 34962
    },
    {
      "buffer": 0,
      "byteLength": 849840,
      "byteOffset": 582860,
      "byteStride": 12,
      "name": "floatBufferViews",
      "target": 34962
    }
  ],
  "buffers": [
    {
      "byteLength": 1432700,
      "uri": "scene.bin"
    }
  ],
  "materials": [
    {
      "doubleSided": true,
      "name": "Material",
      "pbrMetallicRoughness": {
        "baseColorFactor": [
          0.0578054,
          0.0578054,
          0.0578054,
          1.0
        ],
        "metallicFactor": 0.0,
        "roughnessFactor": 0.4
      }
    },
    {
      "doubleSided": true,
      "name": "Material.001",
      "pbrMetallicRoughness": {
        "baseColorFactor": [
          0.119538,
          0.119538,
          0.119538,
          1.0
        ],
        "metallicFactor": 0.0,
        "roughnessFactor": 0.5
      }
    },
    {
      "doubleSided": true,
      "name": "Material.002",
      "pbrMetallicRoughness": {
        "baseColorFactor": [
          0.119538,
          0.119538,
          0.119538,
          1.0
        ],
        "metallicFactor": 0.0,
        "roughnessFactor": 0.5
      }
    },
    {
      "doubleSided": true,
      "name": "Material.004",
      "pbrMetallicRoughness": {
        "baseColorFactor": [
          0.119538,
          0.119538,
          0.119538,
          1.0
        ],
        "metallicFactor": 0.0,
        "roughnessFactor": 0.5
      }
    },
    {
      "doubleSided": true,
      "name": "Material.003",
      "pbrMetallicRoughness": {
        "baseColorFactor": [
          0.0,
          0.0,
          0.0,
          1.0
        ],
        "metallicFactor": 0.0,
        "roughnessFactor": 0.5
      }
    },
    {
      "doubleSided": true,
      "name": "Material.005",
      "pbrMetallicRoughness": {
        "baseColorFactor": [
          0.119538,
          0.119538,
          0.119538,
          1.0
        ],
        "metallicFactor": 0.0,
        "roughnessFactor": 0.5
      }
    },
    {
      "doubleSided": true,
      "name": "material_0",
      "pbrMetallicRoughness": {
        "metallicFactor": 0.0,
        "roughnessFactor": 0.6
      }
    }
  ],
  "meshes": [
    {
      "name": "Object_0",
      "primitives": [
        {
          "attributes": {
            "NORMAL": 1,
            "POSITION": 0,
            "TEXCOORD_0": 2
          },
          "indices": 3,
          "material": 0,
          "mode": 4
        }
      ]
    },
    {
      "name": "Object_1",
      "primitives": [
        {
          "attributes": {
            "NORMAL": 5,
            "POSITION": 4,
            "TEXCOORD_0": 6
          },
          "indices": 7,
          "material": 1,
          "mode": 4
        }
      ]
    },
    {
      "name": "Object_2",
      "primitives": [
        {
          "attributes": {
            "NORMAL": 9,
            "POSITION": 8,
            "TEXCOORD_0": 10
          },
          "indices": 11,
          "material": 2,
          "mode": 4
        }
      ]
    },
    {
      "name": "Object_3",
      "primitives": [
        {
          "attributes": {
            "NORMAL": 13,
            "POSITION": 12,
            "TEXCOORD_0": 14
          },
          "indices": 15,
          "material": 3,
          "mode": 4
        }
      ]
    },
    {
      "name": "Object_4",
      "primitives": [
        {
          "attributes": {
            "NORMAL": 17,
            "POSITION": 16,
            "TEXCOORD_0": 18
          },
          "indices": 19,
          "material": 4,
          "mode": 4
        }
      ]
    },
    {
      "name": "Object_5",
      "primitives": [
        {
          "attributes": {
            "NORMAL": 21,
            "POSITION": 20,
            "TEXCOORD_0": 22
          },
          "indices": 23,
          "material": 5,
          "mode": 4
        }
      ]
    },
    {
      "name": "Object_6",
      "primitives": [
        {
          "attributes": {
            "NORMAL": 25,
            "POSITION": 24,
            "TEXCOORD_0": 26
          },
          "indices": 27,
          "material": 6,
          "mode": 4
        }
      ]
    }
  ],
  "nodes": [
    {
      "children": [
        1
      ],
      "matrix": [
        1.0,
        0.0,
        0.0,
        0.0,
        0.0,
        2.220446049250313e-16,
        -1.0,
        0.0,
        0.0,
        1.0,
        2.220446049250313e-16,
        0.0,
        0.0,
        0.0,
        0.0,
        1.0
      ],
      "name": "Sketchfab_model"
    },
    {
      "children": [
        2
      ],
      "name": "root"
    },
    {
      "children": [
        3
      ],
      "matrix": [
        1.0,
        0.0,
        0.0,
        0.0,
        0.0,
        2.220446049250313e-16,
        1.0,
        0.0,
        0.0,
        -1.0,
        2.220446049250313e-16,
        0.0,
        0.0,
        0.0,
        0.0,
        1.0
      ],
      "name": "GLTF_SceneRootNode"
    },
    {
      "children": [
        4
      ],
      "matrix": [
        1.0,
        0.0,
        0.0,
        0.0,
        0.0,
        2.220446049250313e-16,
        -1.0,
        0.0,
        0.0,
        1.0,
        2.220446049250313e-16,
        0.0,
        0.0,
        0.0,
        0.0,
        1.0
      ],
      "name": "Sketchfab_model_0"
    },
    {
      "children": [
        5
      ],
      "name": "root_1"
    },
    {
      "children": [
        6,
        9,
        12,
        15,
        18,
        21,
        24
      ],
      "matrix": [
        1.0,
        0.0,
        0.0,
        0.0,
        0.0,
        2.220446049250313e-16,
        1.0,
        0.0,
        0.0,
        -1.0,
        2.220446049250313e-16,
        0.0,
        0.0,
        0.0,
        0.0,
        1.0
      ],
      "name": "GLTF_SceneRootNode_2"
    },
    {
      "children": [
        7
      ],
      "name": "frame_0_3"
    },
    {
      "children": [
        8
      ],
      "name": "Object_4_4"
    },
    {
      "mesh": 0,
      "name": "Object_8"
    },
    {
      "children": [
        10
      ],
      "matrix": [
        0.21822631359100342,
        0.0,
        0.0,
        0.0,
        0.0,
        0.21822631359100342,
        0.0,
        0.0,
        0.0,
        0.0,
        0.21822631359100342,
        0.0,
        1.4067753553390503,
        0.11721262335777283,
        1.0456478595733643,
        1.0
      ],
      "name": "power_port_3_5"
    },
    {
      "children": [
        11
      ],
      "name": "Object_6_6"
    },
    {
      "mesh": 1,
      "name": "Object_11"
    },
    {
      "children": [
        13
      ],
      "matrix": [
        0.15390577912330627,
        0.0,
        0.0,
        0.0,
        0.0,
        0.15390577912330627,
        0.0,
        0.0,
        0.0,
        0.0,
        0.15390577912330627,
        0.0,
        1.258409023284912,
        0.24700503051280975,
        0.9888015389442444,
        1.0
      ],
      "name": "power_switch_4_7"
    },
    {
      "children": [
        14
      ],
      "name": "Object_8_8"
    },
    {
      "mesh": 2,
      "name": "Object_14"
    },
    {
      "children": [
        16
      ],
      "matrix": [
        0.35854145884513855,
        0.0,
        0.0,
        0.0,
        0.0,
        0.35854145884513855,
        0.0,
        0.0,
        0.0,
        0.0,
        0.35854145884513855,
        0.0,
        0.34411051869392395,
        0.31187140941619873,
        -0.44802922010421753,
        1.0
      ],
      "name": "fan_5_9"
    },
    {
      "children": [
        17
      ],
      "name": "Object_10_10"
    },
    {
      "mesh": 3,
      "name": "Object_17"
    },
    {
      "children": [
        19
      ],
      "matrix": [
        0.5050661563873291,
        0.0,
        0.0,
        0.0,
        0.0,
        0.5050661563873291,
        0.0,
        0.0,
        0.0,
        0.0,
        0.5050661563873291,
        0.0,
        0.0,
        0.0,
        0.0,
        1.0
      ],
      "name": "vent_cover_6_11"
    },
    {
      "children": [
        20
      ],
      "name": "Object_12_12"
    },
    {
      "mesh": 4,
      "name": "Object_20"
    },
    {
      "children": [
        22
      ],
      "matrix": [
        0.24751482903957367,
        0.0,
        0.0,
        0.0,
        0.0,
        0.24751482903957367,
        0.0,
        0.0,
        0.0,
        0.0,
        0.24751482903957367,
        0.0,
        -0.6171773672103882,
        0.0,
        -1.9926655292510986,
        1.0
      ],
      "name": "modular_ports_7_13"
    },
    {
      "children": [
        23
      ],
      "name": "Object_14_14"
    },
    {
      "mesh": 5,
      "name": "Object_23"
    },
    {
      "children": [
        25
      ],
      "matrix": [
        0.031660836189985275,
        0.0,
        0.0,
        0.0,
        0.0,
        0.0,
        0.031660836189985275,
        0.0,
        0.0,
        -0.031660836189985275,
        0.0,
        0.0,
        1.7455499172210693,
        0.10820899158716202,
        0.7429299354553223,
        1.0
      ],
      "name": "Cylinder_8_15"
    },
    {
      "children": [
        26
      ],
      "name": "Object_16_16"
    },
    {
      "mesh": 6,
      "name": "Object_26"
    }
  ],
  "scene": 0,
  "scenes": [
    {
      "name": "Sketchfab_Scene",
      "nodes": [
        0
      ]
    }
  ]
}
