{
  "accessors": [
    {
      "bufferView": 2,
      "componentType": 5126,
      "count": 2837,
      "max": [
        1.066854476928711,
        1.066854476928711,
        0.5359412431716919
      ],
      "min": [
        -1.0668542385101318,
        -1.066854476928711,
        -0.5359413027763367
      ],
      "type": "VEC3"
    },
    {
      "bufferView": 2,
      "byteOffset": 34044,
      "componentType": 5126,
      "count": 2837,
      "max": [
        0.9975959658622742,
        0.9975959658622742,
        0.9985319375991821
      ],
      "min": [
        -0.9975959658622742,
        -0.9975959658622742,
        -0.9948989152908325
      ],
      "type": "VEC3"
    },
    {
      "bufferView": 1,
      "componentType": 5126,
      "count": 2837,
      "max": [
        1.0,
        0.989998996257782
      ],
      "min": [
        0.0,
        0.0
      ],
      "type": "VEC2"
    },
    {
      "bufferView": 0,
      "componentType": 5125,
      "count": 13242,
      "type": "SCALAR"
    },
    {
      "bufferView": 2,
      "byteOffset": 68088,
      "componentType": 5126,
      "count": 64,
      "max": [
        0.9175028800964355,
        0.9175028800964355,
        0.5359412431716919
      ],
      "min": [
        -0.9175026416778564,
        -0.9175028800964355,
        0.5359412431716919
      ],
      "type": "VEC3"
    },
    {
      "bufferView": 2,
      "byteOffset": 68856,
      "componentType": 5126,
      "count": 64,
      "max": [
        0.10089966654777527,
        0.10089966654777527,
        0.9948989152908325
      ],
      "min": [
        -0.10089966654777527,
        -0.10089966654777527,
        0.9948880076408386
      ],
      "type": "VEC3"
    },
    {
      "bufferView": 1,
      "byteOffset": 22696,
      "componentType": 5126,
      "count": 64,
      "max": [
        0.4564018249511719,
        0.9564018249511719
      ],
      "min": [
        0.04359818249940872,
        0.5435982942581177
      ],
      "type": "VEC2"
    },
    {
      "bufferView": 0,
      "byteOffset": 52968,
      "componentType": 5125,
      "count": 186,
      "type": "SCALAR"
    },
    {
      "bufferView": 2,
      "byteOffset": 69624,
      "componentType": 5126,
      "count": 7684,
      "max": [
        2.633976936340332,
        1.0147218704223633,
        1.0003286600112915
      ],
      "min": [
        -2.633976936340332,
        0.031966812908649445,
        -0.9996713399887085
      ],
      "type": "VEC3"
    },
    {
      "bufferView": 2,
      "byteOffset": 161832,
      "componentType": 5126,
      "count": 7684,
      "max": [
        0.9951962828636169,
        0.995340883731842,
        0.9951962828636169
      ],
      "min": [
        -0.9951962828636169,
        -0.9953391551971436,
        -0.9951962828636169
      ],
      "type": "VEC3"
    },
    {
      "bufferView": 1,
      "byteOffset": 23208,
      "componentType": 5126,
      "count": 7684,
      "max": [
        1.0,
        1.0
      ],
      "min": [
        0.0,
        0.0
      ],
      "type": "VEC2"
    },
    {
      "bufferView": 0,
      "byteOffset": 53712,
      "componentType": 5125,
      "count": 30720,
      "type": "SCALAR"
    },
    {
      "bufferView": 2,
      "byteOffset": 254040,
      "componentType": 5126,
      "count": 34986,
      "max": [
        7.691269874572754,
        2.8953018188476563,
        1.0274662971496582
      ],
      "min": [
        -7.691269874572754,
        -2.905592441558838,
        0.07949793338775635
      ],
      "type": "VEC3"
    },
    {
      "bufferView": 2,
      "byteOffset": 673872,
      "componentType": 5126,
      "count": 34986,
      "max": [
        0.9997965693473816,
        0.9998469948768616,
        0.9999548196792603
      ],
      "min": [
        -0.9997965693473816,
        -0.9998676776885986,
        -0.9999762773513794
      ],
      "type": "VEC3"
    },
    {
      "bufferView": 1,
      "byteOffset": 84680,
      "componentType": 5126,
      "count": 34986,
      "max": [
        1.000000238418579,
        1.0001024007797241
      ],
      "min": [
        -3.8727525861759204e-06,
        -0.0006878376007080078
      ],
      "type": "VEC2"
    },
    {
      "bufferView": 0,
      "byteOffset": 176592,
      "componentType": 5125,
      "count": 195552,
      "type": "SCALAR"
    },
    {
      "bufferView": 2,
      "byteOffset": 1093704,
      "componentType": 5126,
      "count": 2837,
      "max": [
        1.0668542385101318,
        1.066854476928711,
        0.5359412431716919
      ],
      "min": [
        -1.066854476928711,
        -1.066854476928711,
        -0.5359413027763367
      ],
      "type": "VEC3"
    },
    {
      "bufferView": 2,
      "byteOffset": 1127748,
      "componentType": 5126,
      "count": 2837,
      "max": [
        0.9975959658622742,
        0.9975959658622742,
        0.9985319375991821
      ],
      "min": [
        -0.9975959658622742,
        -0.9975959658622742,
        -0.9948989152908325
      ],
      "type": "VEC3"
    },
    {
      "bufferView": 1,
      "byteOffset": 364568,
      "componentType": 5126,
      "count": 2837,
      "max": [
        1.0,
        0.989998996257782
      ],
      "min": [
        0.0,
        0.0
      ],
      "type": "VEC2"
    },
    {
      "bufferView": 0,
      "byteOffset": 958800,
      "componentType": 5125,
      "count": 13242,
      "type": "SCALAR"
    },
    {
      "bufferView": 2,
      "byteOffset": 1161792,
      "componentType": 5126,
      "count": 64,
      "max": [
        0.9175026416778564,
        0.9175028800964355,
        0.5359412431716919
      ],
      "min": [
        -0.9175028800964355,
        -0.9175028800964355,
        0.5359412431716919
      ],
      "type": "VEC3"
    },
    {
      "bufferView": 2,
      "byteOffset": 1162560,
      "componentType": 5126,
      "count": 64,
      "max": [
        0.10089966654777527,
        0.10089966654777527,
        0.9948989152908325
      ],
      "min": [
        -0.10089966654777527,
        -0.10089966654777527,
        0.9948880076408386
      ],
      "type": "VEC3"
    },
    {
      "bufferView": 1,
      "byteOffset": 387264,
      "componentType": 5126,
      "count": 64,
      "max": [
        0.4564018249511719,
        0.9564018249511719
      ],
      "min": [
        0.04359818249940872,
        0.5435982942581177
      ],
      "type": "VEC2"
    },
    {
      "bufferView": 0,
      "byteOffset": 1011768,
      "componentType": 5125,
      "count": 186,
      "type": "SCALAR"
    },
    {
      "bufferView": 2,
      "byteOffset": 1163328,
      "componentType": 5126,
      "count": 6248,
      "max": [
        2.446861505508423,
        1.0125318765640259,
        2.037391424179077
      ],
      "min": [
        -2.446861505508423,
        0.47379326820373535,
        -2.04565167427063
      ],
      "type": "VEC3"
    },
    {
      "bufferView": 2,
      "byteOffset": 1238304,
      "componentType": 5126,
      "count": 6248,
      "max": [
        1.0,
        0.20080634951591492,
        0.5879814028739929
      ],
      "min": [
        -1.0,
        -1.0,
        -0.583922266960144
      ],
      "type": "VEC3"
    },
    {
      "bufferView": 1,
      "byteOffset": 387776,
      "componentType": 5126,
      "count": 6248,
      "max": [
        0.0,
        1.0
      ],
      "min": [
        0.0,
        1.0
      ],
      "type": "VEC2"
    },
    {
      "bufferView": 0,
      "byteOffset": 1012512,
      "componentType": 5125,
      "count": 35904,
      "type": "SCALAR"
    },
    {
      "bufferView": 2,
      "byteOffset": 1313280,
      "componentType": 5126,
      "count": 5040,
      "max": [
        7.713842391967773,
        1.1375154256820679,
        2.9194788932800293
      ],
      "min": [
        -7.713842391967773,
        0.08199632167816162,
        -2.917555809020996
      ],
      "type": "VEC3"
    },
    {
      "bufferView": 2,
      "byteOffset": 1373760,
      "componentType": 5126,
      "count": 5040,
      "max": [
        0.9619712233543396,
        1.0,
        0.9639855027198792
      ],
      "min": [
        -0.9619712233543396,
        0.0,
        -0.9639855027198792
      ],
      "type": "VEC3"
    },
    {
      "bufferView": 1,
      "byteOffset": 437760,
      "componentType": 5126,
      "count": 5040,
      "max": [
        1.0000001192092896,
        1.0
      ],
      "min": [
        0.0,
        -1.1920928955078125e-07
      ],
      "type": "VEC2"
    },
    {
      "bufferView": 0,
      "byteOffset": 1156128,
      "componentType": 5125,
      "count": 28416,
      "type": "SCALAR"
    },
    {
      "bufferView": 2,
      "byteOffset": 1434240,
      "componentType": 5126,
      "count": 65532,
      "max": [
        7.6470818519592285,
        3.546374797821045,
        -0.021373391151428223
      ],
      "min": [
        -7.6470818519592285,
        -3.546374797821045,
        -0.9641773700714111
      ],
      "type": "VEC3"
    },
    {
      "bufferView": 2,
      "byteOffset": 2220624,
      "componentType": 5126,
      "count": 65532,
      "max": [
        1.0,
        0.9999550580978394,
        1.0
      ],
      "min": [
        -1.0,
        -1.0,
        -1.0
      ],
      "type": "VEC3"
    },
    {
      "bufferView": 1,
      "byteOffset": 478080,
      "componentType": 5126,
      "count": 65532,
      "max": [
        0.8750000596046448,
        1.0
      ],
      "min": [
        0.125,
        0.0
      ],
      "type": "VEC2"
    },
    {
      "bufferView": 0,
      "byteOffset": 1269792,
      "componentType": 5125,
      "count": 299118,
      "type": "SCALAR"
    },
    {
      "bufferView": 2,
      "byteOffset": 3007008,
      "componentType": 5126,
      "count": 29945,
      "max": [
        -2.443453788757324,
        3.546374797821045,
        -0.021373391151428223
      ],
      "min": [
        -6.884312152862549,
        -3.546374797821045,
        -0.9641773700714111
      ],
      "type": "VEC3"
    },
    {
      "bufferView": 2,
      "byteOffset": 3366348,
      "componentType": 5126,
      "count": 29945,
      "max": [
        1.0,
        0.9951126575469971,
        0.9951865673065186
      ],
      "min": [
        -1.0,
        -0.9951126575469971,
        -0.9951865673065186
      ],
      "type": "VEC3"
    },
    {
      "bufferView": 1,
      "byteOffset": 1002336,
      "componentType": 5126,
      "count": 29945,
      "max": [
        0.8750000596046448,
        1.0
      ],
      "min": [
        0.125,
        0.0
      ],
      "type": "VEC2"
    },
    {
      "bufferView": 0,
      "byteOffset": 2466264,
      "componentType": 5125,
      "count": 137334,
      "type": "SCALAR"
    },
    {
      "bufferView": 2,
      "byteOffset": 3725688,
      "componentType": 5126,
      "count": 18802,
      "max": [
        8.667839050292969,
        3.4415202140808105,
        1.1291478872299194
      ],
      "min": [
        -7.299890518188477,
        -2.881777763366699,
        -1.1239475011825562
      ],
      "type": "VEC3"
    },
    {
      "bufferView": 2,
      "byteOffset": 3951312,
      "componentType": 5126,
      "count": 18802,
      "max": [
        1.0,
        1.0,
        1.0
      ],
      "min": [
        -1.0,
        -1.0,
        -1.0
      ],
      "type": "VEC3"
    },
    {
      "bufferView": 1,
      "byteOffset": 1241896,
      "componentType": 5126,
      "count": 18802,
      "max": [
        1.0,
        1.0
      ],
      "min": [
        0.0,
        0.014235258102416992
      ],
      "type": "VEC2"
    },
    {
      "bufferView": 0,
      "byteOffset": 3015600,
      "componentType": 5125,
      "count": 56079,
      "type": "SCALAR"
    },
    {
      "bufferView": 2,
      "byteOffset": 4176936,
      "componentType": 5126,
      "count": 811,
      "max": [
        7.66732931137085,
        3.4415202140808105,
        0.13286638259887695
      ],
      "min": [
        4.87794828414917,
        3.4415202140808105,
        -0.15497669577598572
      ],
      "type": "VEC3"
    },
    {
      "bufferView": 2,
      "byteOffset": 4186668,
      "componentType": 5126,
      "count": 811,
      "max": [
        0.0,
        1.0,
        0.0
      ],
      "min": [
        0.0,
        1.0,
        0.0
      ],
      "type": "VEC3"
    },
    {
      "bufferView": 1,
      "byteOffset": 1392312,
      "componentType": 5126,
      "count": 811,
      "max": [
        0.0,
        1.0
      ],
      "min": [
        0.0,
        1.0
      ],
      "type": "VEC2"
    },
    {
      "bufferView": 0,
      "byteOffset": 3239916,
      "componentType": 5125,
      "count": 2391,
      "type": "SCALAR"
    },
    {
      "bufferView": 2,
      "byteOffset": 4196400,
      "componentType": 5126,
      "count": 1447,
      "max": [
        4.066989898681641,
        3.4415199756622314,
        1.1291478872299194
      ],
      "min": [
        -2.6990416049957275,
        -2.88177752494812,
        -1.1239475011825562
      ],
      "type": "VEC3"
    },
    {
      "bufferView": 2,
      "byteOffset": 4213764,
      "componentType": 5126,
      "count": 1447,
      "max": [
        0.840419590473175,
        1.0,
        0.9993906021118164
      ],
      "min": [
        -0.9946079254150391,
        -1.0,
        -0.9999241232872009
      ],
      "type": "VEC3"
    },
    {
      "bufferView": 1,
      "byteOffset": 1398800,
      "componentType": 5126,
      "count": 1447,
      "max": [
        1.0,
        1.0
      ],
      "min": [
        0.0,
        0.08879762887954712
      ],
      "type": "VEC2"
    },
    {
      "bufferView": 0,
      "byteOffset": 3249480,
      "componentType": 5125,
      "count": 4044,
      "type": "SCALAR"
    },
    {
      "bufferView": 2,
      "byteOffset": 4231128,
      "componentType": 5126,
      "count": 8539,
      "max": [
        3.3577723503112793,
        3.168919086456299,
        1.122817873954773
      ],
      "min": [
        -3.3577723503112793,
        0.3189694583415985,
        -1.1228179931640625
      ],
      "type": "VEC3"
    },
    {
      "bufferView": 2,
      "byteOffset": 4333596,
      "componentType": 5126,
      "count": 8539,
      "max": [
        0.9974046349525452,
        1.0,
        0.9999996423721313
      ],
      "min": [
        -0.9974046349525452,
        -0.038601893931627274,
        -1.0
      ],
      "type": "VEC3"
    },
    {
      "bufferView": 1,
      "byteOffset": 1410376,
      "componentType": 5126,
      "count": 8539,
      "max": [
        0.6250003576278687,
        1.0
      ],
      "min": [
        0.0,
        0.24999958276748657
      ],
      "type": "VEC2"
    },
    {
      "bufferView": 0,
      "byteOffset": 3265656,
      "componentType": 5125,
      "count": 47748,
      "type": "SCALAR"
    },
    {
      "bufferView": 2,
      "byteOffset": 4436064,
      "componentType": 5126,
      "count": 694,
      "max": [
        3.0921099185943604,
        3.037787437438965,
        0.6265021562576294
      ],
      "min": [
        -3.0921099185943604,
        2.9407012462615967,
        0.11471258848905563
      ],
      "type": "VEC3"
    },
    {
      "bufferView": 2,
      "byteOffset": 4444392,
      "componentType": 5126,
      "count": 694,
      "max": [
        0.7203313708305359,
        1.0,
        0.7144960761070251
      ],
      "min": [
        -0.7203313708305359,
        0.6780712008476257,
        -0.7145082950592041
      ],
      "type": "VEC3"
    },
    {
      "bufferView": 1,
      "byteOffset": 1478688,
      "componentType": 5126,
      "count": 694,
      "max": [
        0.0,
        1.0
      ],
      "min": [
        0.0,
        1.0
      ],
      "type": "VEC2"
    },
    {
      "bufferView": 0,
      "byteOffset": 3456648,
      "componentType": 5125,
      "count": 3276,
      "type": "SCALAR"
    },
    {
      "bufferView": 2,
      "byteOffset": 4452720,
      "componentType": 5126,
      "count": 426,
      "max": [
        0.37599149346351624,
        0.3705897033214569,
        0.5824213624000549
      ],
      "min": [
        -0.5396387577056885,
        -0.4844346046447754,
        -0.5824251770973206
      ],
      "type": "VEC3"
    },
    {
      "bufferView": 2,
      "byteOffset": 4457832,
      "componentType": 5126,
      "count": 426,
      "max": [
        0.87639319896698,
        0.9765923023223877,
        1.0
      ],
      "min": [
        -0.8432742357254028,
        -0.5374836325645447,
        -1.0
      ],
      "type": "VEC3"
    },
    {
      "bufferView": 1,
      "byteOffset": 1484240,
      "componentType": 5126,
      "count": 426,
      "max": [
        0.0,
        1.0
      ],
      "min": [
        0.0,
        1.0
      ],
      "type": "VEC2"
    },
    {
      "bufferView": 0,
      "byteOffset": 3469752,
      "componentType": 5125,
      "count": 1509,
      "type": "SCALAR"
    },
    {
      "bufferView": 2,
      "byteOffset": 4462944,
      "componentType": 5126,
      "count": 60,
      "max": [
        0.08051013946533203,
        -0.09570802748203278,
        0.5319756865501404
      ],
      "min": [
        -0.534755527973175,
        -0.41759154200553894,
        -0.5332151651382446
      ],
      "type": "VEC3"
    },
    {
      "bufferView": 2,
      "byteOffset": 4463664,
      "componentType": 5126,
      "count": 60,
      "max": [
        0.7972037196159363,
        0.9170153141021729,
        0.5773693323135376
      ],
      "min": [
        -0.26610442996025085,
        0.17659060657024384,
        -0.7172799110412598
      ],
      "type": "VEC3"
    },
    {
      "bufferView": 1,
      "byteOffset": 1487648,
      "componentType": 5126,
      "count": 60,
      "max": [
        0.0,
        1.0
      ],
      "min": [
        0.0,
        1.0
      ],
      "type": "VEC2"
    },
    {
      "bufferView": 0,
      "byteOffset": 3475788,
      "componentType": 5125,
      "count": 102,
      "type": "SCALAR"
    },
    {
      "bufferView": 2,
      "byteOffset": 4464384,
      "componentType": 5126,
      "count": 15666,
      "max": [
        3.0369229316711426,
        0.353588730096817,
        0.9742166996002197
      ],
      "min": [
        -3.678622007369995,
        -2.4922068119049072,
        -1.2672677040100098
      ],
      "type": "VEC3"
    },
    {
      "bufferView": 2,
      "byteOffset": 4652376,
      "componentType": 5126,
      "count": 15666,
      "max": [
        0.9999997615814209,
        1.0,
        1.0
      ],
      "min": [
        -0.9999997615814209,
        -0.710697591304779,
        -1.0
      ],
      "type": "VEC3"
    },
    {
      "bufferView": 1,
      "byteOffset": 1488128,
      "componentType": 5126,
      "count": 15666,
      "max": [
        0.6250002384185791,
        1.0
      ],
      "min": [
        0.0,
        0.24999982118606567
      ],
      "type": "VEC2"
    },
    {
      "bufferView": 0,
      "byteOffset": 3476196,
      "componentType": 5125,
      "count": 88602,
      "type": "SCALAR"
    },
    {
      "bufferView": 2,
      "byteOffset": 4840368,
      "componentType": 5126,
      "count": 594,
      "max": [
        1.393782138824463,
        0.1662002056837082,
        0.5342689156532288
      ],
      "min": [
        -3.4040286540985107,
        0.16620014607906342,
        -0.07133955508470535
      ],
      "type": "VEC3"
    },
    {
      "bufferView": 2,
      "byteOffset": 4847496,
      "componentType": 5126,
      "count": 594,
      "max": [
        0.7123323678970337,
        1.0,
        0.713289201259613
      ],
      "min": [
        -0.7123323678970337,
        0.6814925074577332,
        -0.713289201259613
      ],
      "type": "VEC3"
    },
    {
      "bufferView": 1,
      "byteOffset": 1613456,
      "componentType": 5126,
      "count": 594,
      "max": [
        0.0,
        1.0
      ],
      "min": [
        0.0,
        1.0
      ],
      "type": "VEC2"
    },
    {
      "bufferView": 0,
      "byteOffset": 3830604,
      "componentType": 5125,
      "count": 2880,
      "type": "SCALAR"
    },
    {
      "bufferView": 2,
      "byteOffset": 4854624,
      "componentType": 5126,
      "count": 848,
      "max": [
        -1.2397046089172363,
        -0.3028731346130371,
        -1.2546629905700684
      ],
      "min": [
        -2.422616481781006,
        -1.4663219451904297,
        -1.2637057304382324
      ],
      "type": "VEC3"
    },
    {
      "bufferView": 2,
      "byteOffset": 4864800,
      "componentType": 5126,
      "count": 848,
      "max": [
        -0.00019999311189167202,
        -0.00829971395432949,
        -0.999894380569458
      ],
      "min": [
        -0.008199954405426979,
        -0.011999933049082756,
        -0.9999655485153198
      ],
      "type": "VEC3"
    },
    {
      "bufferView": 1,
      "byteOffset": 1618208,
      "componentType": 5126,
      "count": 848,
      "max": [
        0.5048091411590576,
        0.7647476196289063
      ],
      "min": [
        0.19604367017745972,
        0.394228994846344
      ],
      "type": "VEC2"
    },
    {
      "bufferView": 0,
      "byteOffset": 3842124,
      "componentType": 5125,
      "count": 2526,
      "type": "SCALAR"
    },
    {
      "bufferView": 2,
      "byteOffset": 4874976,
      "componentType": 5126,
      "count": 3304,
      "max": [
        2.8069674968719482,
        0.0032378677278757095,
        0.7019758820533752
      ],
      "min": [
        -2.317580461502075,
        -0.02500000037252903,
        -0.32866165041923523
      ],
      "type": "VEC3"
    },
    {
      "bufferView": 2,
      "byteOffset": 4914624,
      "componentType": 5126,
      "count": 3304,
      "max": [
        1.0,
        1.0,
        1.0
      ],
      "min": [
        -1.0,
        -1.0,
        -1.0
      ],
      "type": "VEC3"
    },
    {
      "bufferView": 1,
      "byteOffset": 1624992,
      "componentType": 5126,
      "count": 3304,
      "max": [
        0.9491575956344604,
        0.7075760364532471
      ],
      "min": [
        0.05079403519630432,
        0.08262014389038086
      ],
      "type": "VEC2"
    },
    {
      "bufferView": 0,
      "byteOffset": 3852228,
      "componentType": 5125,
      "count": 16272,
      "type": "SCALAR"
    },
    {
      "bufferView": 2,
      "byteOffset": 4954272,
      "componentType": 5126,
      "count": 30,
      "max": [
        7.639880657196045,
        0.0,
        2.830242395401001
      ],
      "min": [
        0.6610653400421143,
        0.0,
        -2.8339691162109375
      ],
      "type": "VEC3"
    },
    {
      "bufferView": 2,
      "byteOffset": 4954632,
      "componentType": 5126,
      "count": 30,
      "max": [
        0.0,
        1.0,
        0.0
      ],
      "min": [
        0.0,
        1.0,
        0.0
      ],
      "type": "VEC3"
    },
    {
      "bufferView": 1,
      "byteOffset": 1651424,
      "componentType": 5126,
      "count": 30,
      "max": [
        1.0,
        1.0
      ],
      "min": [
        0.040141135454177856,
        0.0
      ],
      "type": "VEC2"
    },
    {
      "bufferView": 0,
      "byteOffset": 3917316,
      "componentType": 5125,
      "count": 84,
      "type": "SCALAR"
    },
    {
      "bufferView": 2,
      "byteOffset": 4954992,
      "componentType": 5126,
      "count": 5770,
      "max": [
        -7.71826171875,
        2.2426202297210693,
        1.1170762777328491
      ],
      "min": [
        -8.286455154418945,
        -4.050442218780518,
        -1.1182397603988647
      ],
      "type": "VEC3"
    },
    {
      "bufferView": 2,
      "byteOffset": 5024232,
      "componentType": 5126,
      "count": 5770,
      "max": [
        1.0,
        1.0,
        1.0
      ],
      "min": [
        -1.0,
        -1.0,
        -1.0
      ],
      "type": "VEC3"
    },
    {
      "bufferView": 1,
      "byteOffset": 1651664,
      "componentType": 5126,
      "count": 5770,
      "max": [
        1.0000001192092896,
        1.0
      ],
      "min": [
        -7.754817488603294e-05,
        -1.1920928955078125e-07
      ],
      "type": "VEC2"
    },
    {
      "bufferView": 0,
      "byteOffset": 3917652,
      "componentType": 5125,
      "count": 24678,
      "type": "SCALAR"
    },
    {
      "bufferView": 2,
      "byteOffset": 5093472,
      "componentType": 5126,
      "count": 2497,
      "max": [
        0.23919574916362762,
        3.6671154499053955,
        0.10485681891441345
      ],
      "min": [
        -0.6569626927375793,
        -0.40340641140937805,
        -0.1894805133342743
      ],
      "type": "VEC3"
    },
    {
      "bufferView": 2,
      "byteOffset": 5123436,
      "componentType": 5126,
      "count": 2497,
      "max": [
        1.0,
        1.0,
        1.0
      ],
      "min": [
        -1.0,
        -1.0,
        -1.0
      ],
      "type": "VEC3"
    },
    {
      "bufferView": 1,
      "byteOffset": 1697824,
      "componentType": 5126,
      "count": 2497,
      "max": [
        0.875,
        1.0
      ],
      "min": [
        0.125,
        0.0
      ],
      "type": "VEC2"
    },
    {
      "bufferView": 0,
      "byteOffset": 4016364,
      "componentType": 5125,
      "count": 9600,
      "type": "SCALAR"
    },
    {
      "bufferView": 2,
      "byteOffset": 5153400,
      "componentType": 5126,
      "count": 229,
      "max": [
        0.23919574916362762,
        3.658174991607666,
        0.0955629050731659
      ],
      "min": [
        0.2340133637189865,
        -0.3925659656524658,
        -0.18054020404815674
      ],
      "type": "VEC3"
    },
    {
      "bufferView": 2,
      "byteOffset": 5156148,
      "componentType": 5126,
      "count": 229,
      "max": [
        1.0,
        0.0,
        0.0
      ],
      "min": [
        1.0,
        0.0,
        0.0
      ],
      "type": "VEC3"
    },
    {
      "bufferView": 1,
      "byteOffset": 1717800,
      "componentType": 5126,
      "count": 229,
      "max": [
        0.0,
        1.0
      ],
      "min": [
        0.0,
        1.0
      ],
      "type": "VEC2"
    },
    {
      "bufferView": 0,
      "byteOffset": 4054764,
      "componentType": 5125,
      "count": 663,
      "type": "SCALAR"
    },
    {
      "bufferView": 2,
      "byteOffset": 5158896,
      "componentType": 5126,
      "count": 5422,
      "max": [
        0.22541069984436035,
        3.522390842437744,
        -0.019498959183692932
      ],
      "min": [
        -0.6357224583625793,
        -0.23577304184436798,
        -0.09043049812316895
      ],
      "type": "VEC3"
    },
    {
      "bufferView": 2,
      "byteOffset": 5223960,
      "componentType": 5126,
      "count": 5422,
      "max": [
        1.0,
        1.0,
        1.0
      ],
      "min": [
        -1.0,
        -1.0,
        -0.9898691773414612
      ],
      "type": "VEC3"
    },
    {
      "bufferView": 1,
      "byteOffset": 1719632,
      "componentType": 5126,
      "count": 5422,
      "max": [
        0.875,
        1.0
      ],
      "min": [
        0.125,
        0.0
      ],
      "type": "VEC2"
    },
    {
      "bufferView": 0,
      "byteOffset": 4057416,
      "componentType": 5125,
      "count": 20658,
      "type": "SCALAR"
    },
    {
      "bufferView": 2,
      "byteOffset": 5289024,
      "componentType": 5126,
      "count": 1578,
      "max": [
        0.002985000144690275,
        0.0001627751626074314,
        0.002985000144690275
      ],
      "min": [
        -0.002985000144690275,
        -0.0014073806814849377,
        -0.002985000144690275
      ],
      "type": "VEC3"
    },
    {
      "bufferView": 2,
      "byteOffset": 5307960,
      "componentType": 5126,
      "count": 1578,
      "max": [
        0.9934343099594116,
        1.0,
        0.9924365878105164
      ],
      "min": [
        -0.9934343099594116,
        -1.0,
        -0.9924365878105164
      ],
      "type": "VEC3"
    },
    {
      "bufferView": 0,
      "byteOffset": 4140048,
      "componentType": 5125,
      "count": 2616,
      "type": "SCALAR"
    },
    {
      "bufferView": 2,
      "byteOffset": 5326896,
      "componentType": 5126,
      "count": 1578,
      "max": [
        0.002985000144690275,
        0.0001627751626074314,
        0.002985000144690275
      ],
      "min": [
        -0.002985000144690275,
        -0.0014073806814849377,
        -0.002985000144690275
      ],
      "type": "VEC3"
    },
    {
      "bufferView": 2,
      "byteOffset": 5345832,
      "componentType": 5126,
      "count": 1578,
      "max": [
        0.9934343099594116,
        1.0,
        0.9924365878105164
      ],
      "min": [
        -0.9934343099594116,
        -1.0,
        -0.9924365878105164
      ],
      "type": "VEC3"
    },
    {
      "bufferView": 0,
      "byteOffset": 4150512,
      "componentType": 5125,
      "count": 2616,
      "type": "SCALAR"
    },
    {
      "bufferView": 2,
      "byteOffset": 5364768,
      "componentType": 5126,
      "count": 1578,
      "max": [
        0.002985000144690275,
        0.0001627751626074314,
        0.002985000144690275
      ],
      "min": [
        -0.002985000144690275,
        -0.0014073806814849377,
        -0.002985000144690275
      ],
      "type": "VEC3"
    },
    {
      "bufferView": 2,
      "byteOffset": 5383704,
      "componentType": 5126,
      "count": 1578,
      "max": [
        0.9934343099594116,
        1.0,
        0.9924365878105164
      ],
      "min": [
        -0.9934343099594116,
        -1.0,
        -0.9924365878105164
      ],
      "type": "VEC3"
    },
    {
      "bufferView": 0,
      "byteOffset": 4160976,
      "componentType": 5125,
      "count": 2616,
      "type": "SCALAR"
    },
    {
      "bufferView": 2,
      "byteOffset": 5402640,
      "componentType": 5126,
      "count": 1578,
      "max": [
        0.002985000144690275,
        0.0001627751626074314,
        0.002985000144690275
      ],
      "min": [
        -0.002985000144690275,
        -0.0014073806814849377,
        -0.002985000144690275
      ],
      "type": "VEC3"
    },
    {
      "bufferView": 2,
      "byteOffset": 5421576,
      "componentType": 5126,
      "count": 1578,
      "max": [
        0.9934343099594116,
        1.0,
        0.9924365878105164
      ],
      "min": [
        -0.9934343099594116,
        -1.0,
        -0.9924365878105164
      ],
      "type": "VEC3"
    },
    {
      "bufferView": 0,
      "byteOffset": 4171440,
      "componentType": 5125,
      "count": 2616,
      "type": "SCALAR"
    },
    {
      "bufferView": 2,
      "byteOffset": 5440512,
      "componentType": 5126,
      "count": 1578,
      "max": [
        0.002985000144690275,
        0.0001627751626074314,
        0.002985000144690275
      ],
      "min": [
        -0.002985000144690275,
        -0.0014073806814849377,
        -0.002985000144690275
      ],
      "type": "VEC3"
    },
    {
      "bufferView": 2,
      "byteOffset": 5459448,
      "componentType": 5126,
      "count": 1578,
      "max": [
        0.9934343099594116,
        1.0,
        0.9924365878105164
      ],
      "min": [
        -0.9934343099594116,
        -1.0,
        -0.9924365878105164
      ],
      "type": "VEC3"
    },
    {
      "bufferView": 0,
      "byteOffset": 4181904,
      "componentType": 5125,
      "count": 2616,
      "type": "SCALAR"
    },
    {
      "bufferView": 2,
      "byteOffset": 5478384,
      "componentType": 5126,
      "count": 1578,
      "max": [
        0.002985000144690275,
        0.0001627751626074314,
        0.002985000144690275
      ],
      "min": [
        -0.002985000144690275,
        -0.0014073806814849377,
        -0.002985000144690275
      ],
      "type": "VEC3"
    },
    {
      "bufferView": 2,
      "byteOffset": 5497320,
      "componentType": 5126,
      "count": 1578,
      "max": [
        0.9934343099594116,
        1.0,
        0.9924365878105164
      ],
      "min": [
        -0.9934343099594116,
        -1.0,
        -0.9924365878105164
      ],
      "type": "VEC3"
    },
    {
      "bufferView": 0,
      "byteOffset": 4192368,
      "componentType": 5125,
      "count": 2616,
      "type": "SCALAR"
    }
  ],
  "asset": {
    "extras": {
      "author": "mistrender (https://sketchfab.com/mistrender)",
      "license": "CC-BY-NC-4.0 (http://creativecommons.org/licenses/by-nc/4.0/)",
      "source": "https://sketchfab.com/3d-models/nvidia-rtx-5090-founders-edition-free-download-29f1a4fc0b714bcc837d7f78ddd28e9b",
      "title": "NVIDIA RTX 5090 Founders Edition - Free download"
    },
    "generator": "Sketchfab-16.74.0",
    "version": "2.0"
  },
  "bufferViews": [
    {
      "buffer": 0,
      "byteLength": 4202832,
      "name": "floatBufferViews",
      "target": 34963
    },
    {
      "buffer": 0,
      "byteLength": 1763008,
      "byteOffset": 4202832,
      "byteStride": 8,
      "name": "floatBufferViews",
      "target": 34962
    },
    {
      "buffer": 0,
      "byteLength": 5516256,
      "byteOffset": 5965840,
      "byteStride": 12,
      "name": "floatBufferViews",
      "target": 34962
    }
  ],
  "buffers": [
    {
      "byteLength": 11482096,
      "uri": "scene.bin"
    }
  ],
  "images": [
    {
      "uri": "textures/Material_baseColor.png"
    }
  ],
  "materials": [
    {
      "doubleSided": true,
      "name": "default_black",
      "pbrMetallicRoughness": {
        "baseColorFactor": [
          0.00402469,
          0.00402472,
          0.00402472,
          1.0
        ],
        "metallicFactor": 0.0,
        "roughnessFactor": 0.45
      }
    },
    {
      "doubleSided": true,
      "name": "fan_radial_black",
      "pbrMetallicRoughness": {
        "baseColorFactor": [
          0.00402469,
          0.00402472,
          0.00402472,
          1.0
        ]
      }
    },
    {
      "doubleSided": true,
      "name": "cover",
      "pbrMetallicRoughness": {
        "baseColorFactor": [
          0.0451842,
          0.0451842,
          0.0451842,
          1.0
        ],
        "roughnessFactor": 0.25
      }
    },
    {
      "doubleSided": true,
      "name": "fins",
      "pbrMetallicRoughness": {
        "baseColorFactor": [
          0.0,
          0.0,
          0.0,
          1.0
        ],
        "roughnessFactor": 0.3
      }
    },
    {
      "doubleSided": true,
      "name": "frame",
      "pbrMetallicRoughness": {
        "baseColorFactor": [
          0.50933,
          0.437791,
          0.366291,
          1.0
        ],
        "roughnessFactor": 0.25
      }
    },
    {
      "doubleSided": true,
      "name": "GEFORCE_LOGO",
      "pbrMetallicRoughness": {
        "metallicFactor": 0.0,
        "roughnessFactor": 0.5
      }
    },
    {
      "doubleSided": true,
      "name": "Deep_black",
      "pbrMetallicRoughness": {
        "baseColorFactor": [
          0.0,
          0.0,
          0.0,
          1.0
        ],
        "metallicFactor": 0.0
      }
    },
    {
      "doubleSided": true,
      "name": "power_port",
      "pbrMetallicRoughness": {
        "baseColorFactor": [
          0.0,
          0.0,
          0.0,
          1.0
        ],
        "metallicFactor": 0.0,
        "roughnessFactor": 0.25
      }
    },
    {
      "doubleSided": true,
      "name": "Material",
      "pbrMetallicRoughness": {
        "baseColorTexture": {
          "index": 0
        },
        "roughnessFactor": 0.5
      }
    },
    {
      "doubleSided": true,
      "name": "grill_black",
      "pbrMetallicRoughness": {
        "baseColorFactor": [
          0.0,
          0.0,
          0.0,
          1.0
        ],
        "metallicFactor": 0.0
      }
    },
    {
      "doubleSided": true,
      "name": "material",
      "pbrMetallicRoughness": {
        "baseColorFactor": [
          0.437808,
          0.437808,
          0.437808,
          1.0
        ],
        "roughnessFactor": 0.4
      }
    },
    {
      "doubleSided": true,
      "name": "port_black",
      "pbrMetallicRoughness": {
        "baseColorFactor": [
          0.00784545,
          0.00784545,
          0.00784545,
          1.0
        ],
        "metallicFactor": 0.0,
        "roughnessFactor": 0.35
      }
    },
    {
      "doubleSided": true,
      "name": "gold_pin",
      "pbrMetallicRoughness": {
        "baseColorFactor": [
          0.800212,
          0.730398,
          0.151033,
          1.0
        ],
        "roughnessFactor": 0.15
      }
    },
    {
      "doubleSided": true,
      "name": "bolts",
      "pbrMetallicRoughness": {
        "baseColorFactor": [
          0.650255,
          0.650255,
          0.650255,
          1.0
        ],
        "roughnessFactor": 0.25
      }
    }
  ],
  "meshes": [
    {
      "name": "Object_0",
      "primitives": [
        {
          "attributes": {
            "NORMAL": 1,
            "POSITION": 0,
            "TEXCOORD_0": 2
          },
          "indices": 3,
          "material": 0,
          "mode": 4
        }
      ]
    },
    {
      "name": "Object_1",
      "primitives": [
        {
          "attributes": {
            "NORMAL": 5,
            "POSITION": 4,
            "TEXCOORD_0": 6
          },
          "indices": 7,
          "material": 1,
          "mode": 4
        }
      ]
    },
    {
      "name": "Object_2",
      "primitives": [
        {
          "attributes": {
            "NORMAL": 9,
            "POSITION": 8,
            "TEXCOORD_0": 10
          },
          "indices": 11,
          "material": 0,
          "mode": 4
        }
      ]
    },
    {
      "name": "Object_3",
      "primitives": [
        {
          "attributes": {
            "NORMAL": 13,
            "POSITION": 12,
            "TEXCOORD_0": 14
          },
          "indices": 15,
          "material": 0,
          "mode": 4
        }
      ]
    },
    {
      "name": "Object_4",
      "primitives": [
        {
          "attributes": {
            "NORMAL": 17,
            "POSITION": 16,
            "TEXCOORD_0": 18
          },
          "indices": 19,
          "material": 0,
          "mode": 4
        }
      ]
    },
    {
      "name": "Object_5",
      "primitives": [
        {
          "attributes": {
            "NORMAL": 21,
            "POSITION": 20,
            "TEXCOORD_0": 22
          },
          "indices": 23,
          "material": 1,
          "mode": 4
        }
      ]
    },
    {
      "name": "Object_6",
      "primitives": [
        {
          "attributes": {
            "NORMAL": 25,
            "POSITION": 24,
            "TEXCOORD_0": 26
          },
          "indices": 27,
          "material": 2,
          "mode": 4
        }
      ]
    },
    {
      "name": "Object_7",
      "primitives": [
        {
          "attributes": {
            "NORMAL": 29,
            "POSITION": 28,
            "TEXCOORD_0": 30
          },
          "indices": 31,
          "material": 2,
          "mode": 4
        }
      ]
    },
    {
      "name": "Object_8",
      "primitives": [
        {
          "attributes": {
            "NORMAL": 33,
            "POSITION": 32,
            "TEXCOORD_0": 34
          },
          "indices": 35,
          "material": 3,
          "mode": 4
        }
      ]
    },
    {
      "name": "Object_9",
      "primitives": [
        {
          "attributes": {
            "NORMAL": 37,
            "POSITION": 36,
            "TEXCOORD_0": 38
          },
          "indices": 39,
          "material": 3,
          "mode": 4
        }
      ]
    },
    {
      "name": "Object_10",
      "primitives": [
        {
          "attributes": {
            "NORMAL": 41,
            "POSITION": 40,
            "TEXCOORD_0": 42
          },
          "indices": 43,
          "material": 4,
          "mode": 4
        }
      ]
    },
    {
      "name": "Object_11",
      "primitives": [
        {
          "attributes": {
            "NORMAL": 45,
            "POSITION": 44,
            "TEXCOORD_0": 46
          },
          "indices": 47,
          "material": 5,
          "mode": 4
        }
      ]
    },
    {
      "name": "Object_12",
      "primitives": [
        {
          "attributes": {
            "NORMAL": 49,
            "POSITION": 48,
            "TEXCOORD_0": 50
          },
          "indices": 51,
          "material": 6,
          "mode": 4
        }
      ]
    },
    {
      "name": "Object_13",
      "primitives": [
        {
          "attributes": {
            "NORMAL": 53,
            "POSITION": 52,
            "TEXCOORD_0": 54
          },
          "indices": 55,
          "material": 2,
          "mode": 4
        }
      ]
    },
    {
      "name": "Object_14",
      "primitives": [
        {
          "attributes": {
            "NORMAL": 57,
            "POSITION": 56,
            "TEXCOORD_0": 58
          },
          "indices": 59,
          "material": 6,
          "mode": 4
        }
      ]
    },
    {
      "name": "Object_15",
      "primitives": [
        {
          "attributes": {
            "NORMAL": 61,
            "POSITION": 60,
            "TEXCOORD_0": 62
          },
          "indices": 63,
          "material": 7,
          "mode": 4
        }
      ]
    },
    {
      "name": "Object_16",
      "primitives": [
        {
          "attributes": {
            "NORMAL": 65,
            "POSITION": 64,
            "TEXCOORD_0": 66
          },
          "indices": 67,
          "material": 6,
          "mode": 4
        }
      ]
    },
    {
      "name": "Object_17",
      "primitives": [
        {
          "attributes": {
            "NORMAL": 69,
            "POSITION": 68,
            "TEXCOORD_0": 70
          },
          "indices": 71,
          "material": 2,
          "mode": 4
        }
      ]
    },
    {
      "name": "Object_18",
      "primitives": [
        {
          "attributes": {
            "NORMAL": 73,
            "POSITION": 72,
            "TEXCOORD_0": 74
          },
          "indices": 75,
          "material": 6,
          "mode": 4
        }
      ]
    },
    {
      "name": "Object_19",
      "primitives": [
        {
          "attributes": {
            "NORMAL": 77,
            "POSITION": 76,
            "TEXCOORD_0": 78
          },
          "indices": 79,
          "material": 4,
          "mode": 4
        }
      ]
    },
    {
      "name": "Object_20",
      "primitives": [
        {
          "attributes": {
            "NORMAL": 81,
            "POSITION": 80,
            "TEXCOORD_0": 82
          },
          "indices": 83,
          "material": 8,
          "mode": 4
        }
      ]
    },
    {
      "name": "Object_21",
      "primitives": [
        {
          "attributes": {
            "NORMAL": 85,
            "POSITION": 84,
            "TEXCOORD_0": 86
          },
          "indices": 87,
          "material": 9,
          "mode": 4
        }
      ]
    },
    {
      "name": "Object_22",
      "primitives": [
        {
          "attributes": {
            "NORMAL": 89,
            "POSITION": 88,
            "TEXCOORD_0": 90
          },
          "indices": 91,
          "material": 10,
          "mode": 4
        }
      ]
    },
    {
      "name": "Object_23",
      "primitives": [
        {
          "attributes": {
            "NORMAL": 93,
            "POSITION": 92,
            "TEXCOORD_0": 94
          },
          "indices": 95,
          "material": 11,
          "mode": 4
        }
      ]
    },
    {
      "name": "Object_24",
      "primitives": [
        {
          "attributes": {
            "NORMAL": 97,
            "POSITION": 96,
            "TEXCOORD_0": 98
          },
          "indices": 99,
          "material": 6,
          "mode": 4
        }
      ]
    },
    {
      "name": "Object_25",
      "primitives": [
        {
          "attributes": {
            "NORMAL": 101,
            "POSITION": 100,
            "TEXCOORD_0": 102
          },
          "indices": 103,
          "material": 12,
          "mode": 4
        }
      ]
    },
    {
      "name": "Object_26",
      "primitives": [
        {
          "attributes": {
            "NORMAL": 105,
            "POSITION": 104
          },
          "indices": 106,
          "material": 13,
          "mode": 4
        }
      ]
    },
    {
      "name": "Object_27",
      "primitives": [
        {
          "attributes": {
            "NORMAL": 108,
            "POSITION": 107
          },
          "indices": 109,
          "material": 13,
          "mode": 4
        }
      ]
    },
    {
      "name": "Object_28",
      "primitives": [
        {
          "attributes": {
            "NORMAL": 111,
            "POSITION": 110
          },
          "indices": 112,
          "material": 13,
          "mode": 4
        }
      ]
    },
    {
      "name": "Object_29",
      "primitives": [
        {
          "attributes": {
            "NORMAL": 114,
            "POSITION": 113
          },
          "indices": 115,
          "material": 13,
          "mode": 4
        }
      ]
    },
    {
      "name": "Object_30",
      "primitives": [
        {
          "attributes": {
            "NORMAL": 117,
            "POSITION": 116
          },
          "indices": 118,
          "material": 13,
          "mode": 4
        }
      ]
    },
    {
      "name": "Object_31",
      "primitives": [
        {
          "attributes": {
            "NORMAL": 120,
            "POSITION": 119
          },
          "indices": 121,
          "material": 13,
          "mode": 4
        }
      ]
    }
  ],
  "nodes": [
    {
      "children": [
        1
      ],
      "matrix": [
        0.9998478889465332,
        0.0017764474032446703,
        0.017349349334836006,
        0.0,
        0.01730470359325409,
        0.022646360099315865,
        -0.9995937347412109,
        0.0,
        -0.002168625360354781,
        0.9997419714927673,
        0.02261217497289203,
        0.0,
        0.0,
        0.0,
        0.0,
        1.0
      ],
      "name": "Sketchfab_model"
    },
    {
      "children": [
        2
      ],
      "name": "root"
    },
    {
      "children": [
        3,
        6,
        8,
        10,
        13,
        15,
        17,
        20,
        24,
        27,
        30,
        34,
        36,
        38,
        40,
        44,
        46,
        48,
        50,
        52,
        54
      ],
      "matrix": [
        1.0,
        0.0,
        0.0,
        0.0,
        0.0,
        2.220446049250313e-16,
        1.0,
        0.0,
        0.0,
        -1.0,
        2.220446049250313e-16,
        0.0,
        0.0,
        0.0,
        0.0,
        1.0
      ],
      "name": "GLTF_SceneRootNode"
    },
    {
      "children": [
        4,
        5
      ],
      "matrix": [
        1.0,
        0.0,
        0.0,
        0.0,
        0.0,
        1.0,
        0.0,
        0.0,
        0.0,
        0.0,
        1.0,
        0.0,
        5.047289848327637,
        0.6264967918395996,
        0.5812146067619324,
        1.0
      ],
      "name": "fan hub_0"
    },
    {
      "mesh": 0,
      "name": "Object_4"
    },
    {
      "mesh": 1,
      "name": "Object_5"
    },
    {
      "children": [
        7
      ],
      "matrix": [
        2.9252688884735107,
        0.0,
        0.0,
        0.0,
        0.0,
        0.0,
        1.1148602962493896,
        0.0,
        0.0,
        -2.9252688884735107,
        0.0,
        0.0,
        0.2674684524536133,
        0.6274583339691162,
        3.038711383851478e-06,
        1.0
      ],
      "name": "blade holder_1"
    },
    {
      "mesh": 2,
      "name": "Object_7"
    },
    {
      "children": [
        9
      ],
      "matrix": [
        1.0,
        0.0,
        0.0,
        0.0,
        0.0,
        1.0,
        0.0,
        0.0,
        0.0,
        0.0,
        1.0,
        0.0,
        0.2674684524536133,
        0.6274583339691162,
        3.038711383851478e-06,
        1.0
      ],
      "name": "Blade_2"
    },
    {
      "mesh": 3,
      "name": "Object_9"
    },
    {
      "children": [
        11,
        12
      ],
      "matrix": [
        1.0,
        0.0,
        0.0,
        0.0,
        0.0,
        1.0,
        0.0,
        0.0,
        0.0,
        0.0,
        1.0,
        0.0,
        -4.51235294342041,
        0.6264967918395996,
        0.5812146067619324,
        1.0
      ],
      "name": "fan hub.001_3"
    },
    {
      "mesh": 4,
      "name": "Object_11"
    },
    {
      "mesh": 5,
      "name": "Object_12"
    },
    {
      "children": [
        14
      ],
      "matrix": [
        1.1131291389465332,
        0.0,
        0.0,
        0.0,
        0.0,
        0.0,
        1.1131291389465332,
        0.0,
        0.0,
        -1.1131291389465332,
        0.0,
        0.0,
        0.26746833324432373,
        0.6274583339691162,
        3.0994415283203125e-06,
        1.0
      ],
      "name": "fan cover one_4"
    },
    {
      "mesh": 6,
      "name": "Object_14"
    },
    {
      "children": [
        16
      ],
      "matrix": [
        1.0,
        0.0,
        0.0,
        0.0,
        0.0,
        0.0,
        1.0,
        0.0,
        0.0,
        -1.0,
        0.0,
        0.0,
        0.2674684524536133,
        0.6274583339691162,
        3.038711383851478e-06,
        1.0
      ],
      "name": "fan cover two_5"
    },
    {
      "mesh": 7,
      "name": "Object_16"
    },
    {
      "children": [
        18,
        19
      ],
      "matrix": [
        1.0,
        0.0,
        0.0,
        0.0,
        0.0,
        0.8000790476799011,
        0.0,
        0.0,
        0.0,
        0.0,
        1.0,
        0.0,
        0.2674684524536133,
        0.6274583339691162,
        3.038711383851478e-06,
        1.0
      ],
      "name": "fins_6"
    },
    {
      "mesh": 8,
      "name": "Object_18"
    },
    {
      "mesh": 9,
      "name": "Object_19"
    },
    {
      "children": [
        21,
        22,
        23
      ],
      "matrix": [
        1.0,
        0.0,
        0.0,
        0.0,
        0.0,
        1.0,
        0.0,
        0.0,
        0.0,
        0.0,
        1.0,
        0.0,
        -0.41650593280792236,
        0.3475874066352844,
        -0.002600193489342928,
        1.0
      ],
      "name": "main frame_7"
    },
    {
      "mesh": 10,
      "name": "Object_21"
    },
    {
      "mesh": 11,
      "name": "Object_22"
    },
    {
      "mesh": 12,
      "name": "Object_23"
    },
    {
      "children": [
        25,
        26
      ],
      "matrix": [
        -0.9999999999999467,
        3.258413698858844e-07,
        0.0,
        0.0,
        -3.258413698858844e-07,
        -0.9999999999999467,
        0.0,
        0.0,
        0.0,
        0.0,
        1.0,
        0.0,
        0.26746827363967896,
        0.6274582147598267,
        3.0387116112251533e-06,
        1.0
      ],
      "name": "bottom cover_8"
    },
    {
      "mesh": 13,
      "name": "Object_25"
    },
    {
      "mesh": 14,
      "name": "Object_26"
    },
    {
      "children": [
        28,
        29
      ],
      "matrix": [
        0.9940634190290265,
        -0.10880220102701105,
        0.0,
        0.0,
        0.10880220102701105,
        0.9940634190290265,
        0.0,
        0.0,
        0.0,
        0.0,
        1.0,
        0.0,
        2.452420234680176,
        3.382314920425415,
        4.867742063652258e-06,
        1.0
      ],
      "name": "power port_9"
    },
    {
      "mesh": 15,
      "name": "Object_28"
    },
    {
      "mesh": 16,
      "name": "Object_29"
    },
    {
      "children": [
        31,
        32,
        33
      ],
      "matrix": [
        1.0,
        0.0,
        0.0,
        0.0,
        0.0,
        1.0,
        0.0,
        0.0,
        0.0,
        0.0,
        1.0,
        0.0,
        0.58831787109375,
        3.4427876472473145,
        0.14652849733829498,
        1.0
      ],
      "name": "up cover_10"
    },
    {
      "mesh": 17,
      "name": "Object_31"
    },
    {
      "mesh": 18,
      "name": "Object_32"
    },
    {
      "mesh": 19,
      "name": "Object_33"
    },
    {
      "children": [
        35
      ],
      "matrix": [
        1.0,
        0.0,
        0.0,
        0.0,
        0.0,
        0.0,
        1.0,
        0.0,
        0.0,
        -1.0,
        0.0,
        0.0,
        -3.1491005420684814,
        -2.6056971549987793,
        -0.853645920753479,
        1.0
      ],
      "name": "pcie_11"
    },
    {
      "mesh": 20,
      "name": "Object_35"
    },
    {
      "children": [
        37
      ],
      "matrix": [
        1.0,
        0.0,
        0.0,
        0.0,
        0.0,
        0.0,
        1.0,
        0.0,
        0.0,
        -1.0,
        0.0,
        0.0,
        0.2674684524536133,
        0.6274583339691162,
        -0.3579504191875458,
        1.0
      ],
      "name": "grill blk_12"
    },
    {
      "mesh": 21,
      "name": "Object_37"
    },
    {
      "children": [
        39
      ],
      "name": "io plate_13"
    },
    {
      "mesh": 22,
      "name": "Object_39"
    },
    {
      "children": [
        41,
        42,
        43
      ],
      "matrix": [
        1.0,
        0.0,
        0.0,
        0.0,
        0.0,
        1.0,
        0.0,
        0.0,
        0.0,
        0.0,
        1.0,
        0.0,
        -7.118068695068359,
        -1.7378394603729248,
        -0.29402562975883484,
        1.0
      ],
      "name": "ports_14"
    },
    {
      "mesh": 23,
      "name": "Object_41"
    },
    {
      "mesh": 24,
      "name": "Object_42"
    },
    {
      "mesh": 25,
      "name": "Object_43"
    },
    {
      "children": [
        45
      ],
      "matrix": [
        1.3515193409068399e-05,
        40.08364105224381,
        0.0,
        0.0,
        -40.08364105224381,
        1.3515193409068399e-05,
        0.0,
        0.0,
        0.0,
        0.0,
        40.083641052246094,
        0.0,
        -7.739001750946045,
        -2.130054235458374,
        -0.7945281863212585,
        1.0
      ],
      "name": "Bolt 1_15"
    },
    {
      "mesh": 26,
      "name": "Object_45"
    },
    {
      "children": [
        47
      ],
      "matrix": [
        1.3515193409068399e-05,
        40.08364105224381,
        0.0,
        0.0,
        -40.08364105224381,
        1.3515193409068399e-05,
        0.0,
        0.0,
        0.0,
        0.0,
        40.083641052246094,
        0.0,
        -7.739001750946045,
        -2.130054235458374,
        0.815605878829956,
        1.0
      ],
      "name": "Bolt 2_16"
    },
    {
      "mesh": 27,
      "name": "Object_47"
    },
    {
      "children": [
        49
      ],
      "matrix": [
        1.3515193409068399e-05,
        40.08364105224381,
        0.0,
        0.0,
        -40.08364105224381,
        1.3515193409068399e-05,
        0.0,
        0.0,
        0.0,
        0.0,
        40.083641052246094,
        0.0,
        -7.73900032043457,
        1.8609305620193481,
        -0.7945281863212585,
        1.0
      ],
      "name": "Bolt 4_17"
    },
    {
      "mesh": 28,
      "name": "Object_49"
    },
    {
      "children": [
        51
      ],
      "matrix": [
        1.3515193409068399e-05,
        40.08364105224381,
        0.0,
        0.0,
        -40.08364105224381,
        1.3515193409068399e-05,
        0.0,
        0.0,
        0.0,
        0.0,
        40.083641052246094,
        0.0,
        -7.73900032043457,
        1.8609305620193481,
        0.815605878829956,
        1.0
      ],
      "name": "Bolt 3_18"
    },
    {
      "mesh": 29,
      "name": "Object_51"
    },
    {
      "children": [
        53
      ],
      "matrix": [
        1.3515193943089773e-05,
        40.08364105224328,
        6.530454342711785e-06,
        0.0,
        40.08364105224328,
        -1.3515192866146668e-05,
        -6.530456544616752e-06,
        0.0,
        -6.530454342711785e-06,
        6.530456544616752e-06,
        -40.083641052245014,
        0.0,
        8.245655059814453,
        1.736487627029419,
        -0.49605944752693176,
        1.0
      ],
      "name": "Bolt 6_19"
    },
    {
      "mesh": 30,
      "name": "Object_53"
    },
    {
      "children": [
        55
      ],
      "matrix": [
        1.3515193943089773e-05,
        40.08364105224328,
        6.530454342711785e-06,
        0.0,
        40.08364105224328,
        -1.3515192866146668e-05,
        -6.530456544616752e-06,
        0.0,
        -6.530454342711785e-06,
        6.530456544616752e-06,
        -40.083641052245014,
        0.0,
        8.245654106140137,
        -0.7218871712684631,
        -0.49605944752693176,
        1.0
      ],
      "name": "Bolt 5_20"
    },
    {
      "mesh": 31,
      "name": "Object_55"
    }
  ],
  "samplers": [
    {
      "magFilter": 9729,
      "minFilter": 9987,
      "wrapS": 10497,
      "wrapT": 10497
    }
  ],
  "scene": 0,
  "scenes": [
    {
      "name": "Sketchfab_Scene",
      "nodes": [
        0
      ]
    }
  ],
  "textures": [
    {
      "sampler": 0,
      "source": 0
    }
  ]
}
